<svg xmlns="http://www.w3.org/2000/svg" xmlns:xlink="http://www.w3.org/1999/xlink" viewBox="0 0 1600 1600" width="1600" height="1600" preserveAspectRatio="xMidYMid meet" style="width: 100%; height: 100%; transform: translate3d(0px, 0px, 0px); content-visibility: visible;"><defs><clipPath id="__lottie_element_2"><rect width="1600" height="1600" x="0" y="0"></rect></clipPath><clipPath id="__lottie_element_5"><path d="M0,0 L1600,0 L1600,1600 L0,1600z"></path></clipPath></defs><g clip-path="url(#__lottie_element_2)"><g clip-path="url(#__lottie_element_5)" transform="matrix(1.5,0,0,1.5,-646.719970703125,-613.5249633789062)" opacity="1" style="display: block;"><g transform="matrix(1,0,0,1,800,800)" opacity="1" style="display: block;"><g opacity="1" transform="matrix(1,0,0,1,0,0)"><path fill="rgb(209,220,226)" fill-opacity="1" d=" M232.4320068359375,499.906005859375 C232.4320068359375,499.906005859375 215.44500732421875,499.906005859375 215.44500732421875,499.906005859375 C215.44500732421875,499.906005859375 215.44500732421875,269.18701171875 215.44500732421875,269.18701171875 C215.44500732421875,269.18701171875 232.4320068359375,269.18701171875 232.4320068359375,269.18701171875 C232.4320068359375,269.18701171875 232.4320068359375,499.906005859375 232.4320068359375,499.906005859375z"></path><path stroke-linecap="round" stroke-linejoin="round" fill-opacity="0" stroke="rgb(209,220,226)" stroke-opacity="1" stroke-width="1.667" d=" M232.4320068359375,499.906005859375 C232.4320068359375,499.906005859375 215.44500732421875,499.906005859375 215.44500732421875,499.906005859375 C215.44500732421875,499.906005859375 215.44500732421875,269.18701171875 215.44500732421875,269.18701171875 C215.44500732421875,269.18701171875 232.4320068359375,269.18701171875 232.4320068359375,269.18701171875 C232.4320068359375,269.18701171875 232.4320068359375,499.906005859375 232.4320068359375,499.906005859375z"></path></g><g opacity="1" transform="matrix(1,0,0,1,0,0)"><path fill="rgb(240,241,242)" fill-opacity="1" d=" M367.28900146484375,288.7959899902344 C367.28900146484375,288.7959899902344 129.59500122070312,288.7959899902344 129.59500122070312,288.7959899902344 C129.59500122070312,288.7959899902344 203.02499389648438,-75.28600311279297 203.02499389648438,-75.28600311279297 C203.02499389648438,-75.28600311279297 440.7200012207031,-75.28600311279297 440.7200012207031,-75.28600311279297 C440.7200012207031,-75.28600311279297 367.28900146484375,288.7959899902344 367.28900146484375,288.7959899902344z"></path><path stroke-linecap="round" stroke-linejoin="round" fill-opacity="0" stroke="rgb(240,241,242)" stroke-opacity="1" stroke-width="1.667" d=" M367.28900146484375,288.7959899902344 C367.28900146484375,288.7959899902344 129.59500122070312,288.7959899902344 129.59500122070312,288.7959899902344 C129.59500122070312,288.7959899902344 203.02499389648438,-75.28600311279297 203.02499389648438,-75.28600311279297 C203.02499389648438,-75.28600311279297 440.7200012207031,-75.28600311279297 440.7200012207031,-75.28600311279297 C440.7200012207031,-75.28600311279297 367.28900146484375,288.7959899902344 367.28900146484375,288.7959899902344z"></path></g><g opacity="1" transform="matrix(1,0,0,1,0,0)"><path fill="rgb(240,241,242)" fill-opacity="1" d=" M68.73200225830078,263.0409851074219 C68.73200225830078,263.0409851074219 358.2929992675781,263.0409851074219 358.2929992675781,263.0409851074219 C358.2929992675781,263.0409851074219 358.2929992675781,288.7959899902344 358.2929992675781,288.7959899902344 C358.2929992675781,288.7959899902344 68.73200225830078,288.7959899902344 68.73200225830078,288.7959899902344 C68.73200225830078,288.7959899902344 68.73200225830078,263.0409851074219 68.73200225830078,263.0409851074219z"></path><path stroke-linecap="round" stroke-linejoin="round" fill-opacity="0" stroke="rgb(240,241,242)" stroke-opacity="1" stroke-width="1.667" d=" M68.73200225830078,263.0409851074219 C68.73200225830078,263.0409851074219 358.2929992675781,263.0409851074219 358.2929992675781,263.0409851074219 C358.2929992675781,263.0409851074219 358.2929992675781,288.7959899902344 358.2929992675781,288.7959899902344 C358.2929992675781,288.7959899902344 68.73200225830078,288.7959899902344 68.73200225830078,288.7959899902344 C68.73200225830078,288.7959899902344 68.73200225830078,263.0409851074219 68.73200225830078,263.0409851074219z"></path></g><g opacity="1" transform="matrix(1,0,0,1,0,0)"><path fill="rgb(209,220,226)" fill-opacity="1" d=" M178.5590057373047,484.0660095214844 C178.5590057373047,484.0660095214844 269.3179931640625,484.0660095214844 269.3179931640625,484.0660095214844 C278.0660095214844,484.0660095214844 285.1570129394531,491.1579895019531 285.1570129394531,499.906005859375 C285.1570129394531,499.906005859375 285.1570129394531,499.906005859375 285.1570129394531,499.906005859375 C285.1570129394531,499.906005859375 162.72000122070312,499.906005859375 162.72000122070312,499.906005859375 C162.72000122070312,499.906005859375 162.72000122070312,499.906005859375 162.72000122070312,499.906005859375 C162.72000122070312,491.1579895019531 169.81100463867188,484.0660095214844 178.5590057373047,484.0660095214844z"></path><path stroke-linecap="round" stroke-linejoin="round" fill-opacity="0" stroke="rgb(209,220,226)" stroke-opacity="1" stroke-width="1.667" d=" M178.5590057373047,484.0660095214844 C178.5590057373047,484.0660095214844 269.3179931640625,484.0660095214844 269.3179931640625,484.0660095214844 C278.0660095214844,484.0660095214844 285.1570129394531,491.1579895019531 285.1570129394531,499.906005859375 C285.1570129394531,499.906005859375 285.1570129394531,499.906005859375 285.1570129394531,499.906005859375 C285.1570129394531,499.906005859375 162.72000122070312,499.906005859375 162.72000122070312,499.906005859375 C162.72000122070312,499.906005859375 162.72000122070312,499.906005859375 162.72000122070312,499.906005859375 C162.72000122070312,491.1579895019531 169.81100463867188,484.0660095214844 178.5590057373047,484.0660095214844z"></path></g></g><g transform="matrix(0.9807648658752441,0.19519302248954773,-0.19519302248954773,0.9807648658752441,801.67236328125,777.5514526367188)" opacity="1" style="display: block;"><g opacity="1" transform="matrix(1,0,0,1,0,0)"><path fill="rgb(15,130,117)" fill-opacity="1" d=" M131.28199768066406,-35.481998443603516 C149.36500549316406,-26.3439998626709 156.6179962158203,-4.2769999504089355 147.47999572753906,13.805999755859375 C138.3419952392578,31.888999938964844 116.27400207519531,39.141998291015625 98.19100189208984,30.003999710083008 C80.10800170898438,20.865999221801758 72.85600280761719,-1.2020000219345093 81.99400329589844,-19.28499984741211 C91.13200378417969,-37.36800003051758 113.1989974975586,-44.619998931884766 131.28199768066406,-35.481998443603516z"></path></g><g opacity="1" transform="matrix(1,0,0,1,0,0)"><path fill="rgb(158,72,42)" fill-opacity="1" d=" M147.47999572753906,13.805999755859375 C147.47999572753906,13.805999755859375 92.75299835205078,125.70899963378906 92.75299835205078,125.70899963378906 C92.75299835205078,125.70899963378906 29.2549991607666,89.65599822998047 29.2549991607666,89.65599822998047 C29.2549991607666,89.65599822998047 81.99400329589844,-19.28499984741211 81.99400329589844,-19.28499984741211 C81.99400329589844,-19.28499984741211 147.47999572753906,13.805999755859375 147.47999572753906,13.805999755859375z"></path></g><g opacity="1" transform="matrix(1,0,0,1,0,0)"><path fill="rgb(2,2,2)" fill-opacity="1" d=" M147.47999572753906,13.805999755859375 C147.47999572753906,13.805999755859375 110.04299926757812,90.35600280761719 110.04299926757812,90.35600280761719 C110.04299926757812,90.35600280761719 100.05500030517578,86.36399841308594 81.28500366210938,76.12000274658203 C66.94499969482422,68.29399871826172 48.441001892089844,49.47200012207031 48.441001892089844,49.47200012207031 C48.441001892089844,49.47200012207031 81.99400329589844,-19.28499984741211 81.99400329589844,-19.28499984741211 C81.99400329589844,-19.28499984741211 147.47999572753906,13.805999755859375 147.47999572753906,13.805999755859375z"></path></g><g opacity="1" transform="matrix(1,0,0,1,0,0)"><path fill="rgb(15,130,117)" fill-opacity="1" d=" M43.645999908447266,45.619998931884766 C43.645999908447266,45.619998931884766 81.99400329589844,-19.28499984741211 81.99400329589844,-19.28499984741211 C81.99400329589844,-19.28499984741211 147.47999572753906,13.805999755859375 147.47999572753906,13.805999755859375 C147.47999572753906,13.805999755859375 121.58699798583984,76.60399627685547 121.58699798583984,76.60399627685547 C87.9229965209961,81.15299987792969 46.111000061035156,48.104000091552734 43.645999908447266,45.619998931884766z"></path></g></g><g transform="matrix(0.9675593972206116,-0.25264355540275574,0.25264355540275574,0.9675593972206116,808.3861083984375,863.2178955078125)" opacity="1" style="display: block;"><g opacity="1" transform="matrix(1,0,0,1,0,0)"><path fill="rgb(15,130,117)" fill-opacity="1" d=" M234.86599731445312,-34.29899978637695 C216.50100708007812,-25.742000579833984 208.5489959716797,-3.9170000553131104 217.1060028076172,14.447999954223633 C225.66299438476562,32.8129997253418 247.48800659179688,40.76499938964844 265.8529968261719,32.20800018310547 C284.2179870605469,23.650999069213867 292.1700134277344,1.8259999752044678 283.6130065917969,-16.538999557495117 C275.0559997558594,-34.90399932861328 253.2310028076172,-42.85599899291992 234.86599731445312,-34.29899978637695z"></path></g><g opacity="1" transform="matrix(1,0,0,1,0,0)"><path fill="rgb(158,72,42)" fill-opacity="1" d=" M217.1060028076172,14.447999954223633 C217.1060028076172,14.447999954223633 268.239013671875,128.03799438476562 268.239013671875,128.03799438476562 C268.239013671875,128.03799438476562 333.093994140625,93.62100219726562 333.093994140625,93.62100219726562 C333.093994140625,93.62100219726562 283.6130065917969,-16.538999557495117 283.6130065917969,-16.538999557495117 C283.6130065917969,-16.538999557495117 217.1060028076172,14.447999954223633 217.1060028076172,14.447999954223633z"></path></g><g opacity="1" transform="matrix(1,0,0,1,0,0)"><path fill="rgb(2,2,2)" fill-opacity="1" d=" M217.1060028076172,14.447999954223633 C217.1060028076172,14.447999954223633 254.3769989013672,97.24299621582031 254.3769989013672,97.24299621582031 C254.3769989013672,97.24299621582031 268.2439880371094,89.375 281.91900634765625,79.33100128173828 C298.55499267578125,67.11199951171875 314.2650146484375,51.70199966430664 314.2650146484375,51.70199966430664 C314.2650146484375,51.70199966430664 283.6130065917969,-16.538999557495117 283.6130065917969,-16.538999557495117 C283.6130065917969,-16.538999557495117 217.1060028076172,14.447999954223633 217.1060028076172,14.447999954223633z"></path></g><g opacity="1" transform="matrix(1,0,0,1,0,0)"><path fill="rgb(15,130,117)" fill-opacity="1" d=" M245.15899658203125,88.7699966430664 C245.15899658203125,88.7699966430664 217.1060028076172,14.447999954223633 217.1060028076172,14.447999954223633 C217.1060028076172,14.447999954223633 283.6130065917969,-16.538999557495117 283.6130065917969,-16.538999557495117 C283.6130065917969,-16.538999557495117 319.52899169921875,47.91899871826172 319.52899169921875,47.91899871826172 C299.7919921875,62.4370002746582 268.5610046386719,81.31900024414062 245.15899658203125,88.7699966430664z"></path></g></g><g transform="matrix(1,0,0,1,800,800)" opacity="1" style="display: block;"><g opacity="1" transform="matrix(1,0,0,1,0,0)"><path fill="rgb(2,2,2)" fill-opacity="1" d=" M258.864990234375,117.85900115966797 C262.2969970703125,117.48799896240234 271.22698974609375,114.16999816894531 270.99798583984375,108.61699676513672 C270.677001953125,100.82099914550781 247.90899658203125,98.42900085449219 212.4239959716797,95.88800048828125 C176.93899536132812,93.34700012207031 89.98500061035156,109.4229965209961 89.98500061035156,109.4229965209961 C89.98500061035156,109.4229965209961 98.6780014038086,123.27999877929688 169.23300170898438,121.24700164794922 C193.06100463867188,120.55999755859375 233.17799377441406,120.63400268554688 258.864990234375,117.85900115966797z"></path></g><g opacity="1" transform="matrix(1,0,0,1,0,0)"><path fill="rgb(158,72,42)" fill-opacity="1" d=" M254.64500427246094,119.72699737548828 C254.64500427246094,119.72699737548828 252.11500549316406,93.24500274658203 264.3299865722656,61.29199981689453 C274.72100830078125,34.111000061035156 289.35400390625,1.090000033378601 279.74200439453125,-16.142000198364258 C268.1549987792969,-36.91400146484375 226.31100463867188,-45.20600128173828 184.64199829101562,-45.8390007019043 C140.62600708007812,-46.50699996948242 99.71399688720703,-39.641998291015625 87.58100128173828,-22.93000030517578 C73.57099914550781,-3.632999897003174 93.14700317382812,31.923999786376953 100.37000274658203,61.45600128173828 C108.47599792480469,94.5989990234375 105.35800170898438,119.9469985961914 105.35800170898438,119.9469985961914 C105.35800170898438,119.9469985961914 254.64500427246094,119.72699737548828 254.64500427246094,119.72699737548828z"></path></g><g opacity="1" transform="matrix(1,0,0,1,0,0)"><path fill="rgb(158,72,42)" fill-opacity="1" d=" M105.35800170898438,121.47100067138672 C105.35800170898438,162.71800231933594 138.7949981689453,196.15499877929688 180.04200744628906,196.15499877929688 C221.28900146484375,196.15499877929688 254.7259979248047,162.71800231933594 254.7259979248047,121.47100067138672 C254.7259979248047,80.2239990234375 221.28900146484375,46.7869987487793 180.04200744628906,46.7869987487793 C138.7949981689453,46.7869987487793 105.35800170898438,80.2239990234375 105.35800170898438,121.47100067138672z"></path></g><g opacity="1" transform="matrix(1,0,0,1,0,0)"><path fill="rgb(2,2,2)" fill-opacity="1" d=" M198.2570037841797,101.7770004272461 C209.9250030517578,99.78600311279297 221.86900329589844,97.76300048828125 233.7030029296875,97.23400115966797 C240.16400146484375,96.94499969482422 248.2949981689453,96.15799713134766 255.43600463867188,97.3479995727539 C254.86900329589844,102.0790023803711 254.59800720214844,106.23799896240234 254.49000549316406,109.63800048828125 C251.39599609375,109.17900085449219 247.52099609375,108.51799774169922 229.67999267578125,107.74800109863281 C215.2100067138672,107.1240005493164 199.2989959716797,107.7030029296875 181.50100708007812,107.95899963378906 C179.33099365234375,107.98999786376953 177.14599609375,108.03500366210938 174.95599365234375,108.125 C182.5050048828125,105.31600189208984 190.24600219726562,103.14399719238281 198.2570037841797,101.7770004272461z"></path></g><g opacity="1" transform="matrix(1,0,0,1,0,0)"><path fill="rgb(15,130,117)" fill-opacity="1" d=" M270.99798583984375,108.61699676513672 C270.99798583984375,108.61699676513672 254.80599975585938,97.59500122070312 186.12100219726562,107.03700256347656 C112.17500305175781,117.2030029296875 89.98500061035156,109.4229965209961 89.98500061035156,109.4229965209961 C89.04000091552734,105.26499938964844 91.02400207519531,88.28500366210938 92.01000213623047,75.08200073242188 C92.52799987792969,68.15299987792969 92.77100372314453,62.26499938964844 92.1719970703125,59.81700134277344 C90.36599731445312,52.433998107910156 88.3010025024414,44.7760009765625 86.43699645996094,37.141998291015625 C80.84600067138672,14.23900032043457 77.0739974975586,-8.456999778747559 87.58100128173828,-22.93000030517578 C96.66699981689453,-35.444000244140625 100.60700225830078,-39.81700134277344 131.18699645996094,-42.2599983215332 C132.22500610351562,-27.551000595092773 180.04200744628906,4.945000171661377 180.04200744628906,4.945000171661377 C180.04200744628906,4.945000171661377 230.33599853515625,-23.256000518798828 232.5489959716797,-41.04600143432617 C267.40399169921875,-37.64400100708008 274.6180114746094,-31.83799934387207 280.4389953613281,-17.655000686645508 C282.2879943847656,-13.14900016784668 283.1199951171875,-6.732999801635742 283.16900634765625,-0.9580000042915344 C283.26300048828125,10.100000381469727 279.85101318359375,23.42799949645996 275.82000732421875,37.03300094604492 C273.4280090332031,45.10599899291992 270.8179931640625,53.275001525878906 268.5929870605469,61.12799835205078 C268.0299987792969,63.11399841308594 268.1610107421875,67.66100311279297 268.5769958496094,73.21199798583984 C269.54400634765625,86.11299896240234 272.0559997558594,104.43499755859375 270.99798583984375,108.61699676513672z"></path></g><g opacity="1" transform="matrix(1,0,0,1,0,0)"><path stroke-linecap="round" stroke-linejoin="round" fill-opacity="0" stroke="rgb(2,2,2)" stroke-opacity="1" stroke-width="1.667" d=" M275.82000732421875,37.03300094604492 C273.4280090332031,45.10599899291992 270.8179931640625,53.275001525878906 268.5929870605469,61.12799835205078 C268.0299987792969,63.11399841308594 268.1610107421875,67.66100311279297 268.5769958496094,73.21199798583984"></path></g><g opacity="1" transform="matrix(1,0,0,1,0,0)"><path stroke-linecap="round" stroke-linejoin="round" fill-opacity="0" stroke="rgb(2,2,2)" stroke-opacity="1" stroke-width="1.667" d=" M92.01000213623047,75.08200073242188 C92.52799987792969,68.15299987792969 92.77100372314453,62.26499938964844 92.1719970703125,59.81700134277344 C90.36599731445312,52.433998107910156 88.3010025024414,44.7760009765625 86.43699645996094,37.141998291015625"></path></g></g><g transform="matrix(0.9893765449523926,-0.1453750729560852,0.1453750729560852,0.9893765449523926,813.7427978515625,828.5458374023438)" opacity="1" style="display: block;"><g opacity="1" transform="matrix(1,0,0,1,0,0)"><path fill="rgb(158,72,42)" fill-opacity="1" d=" M333.8609924316406,126.63200378417969 C342.4490051269531,108.28099822998047 334.5350036621094,86.44300079345703 316.1839904785156,77.8550033569336 C297.8330078125,69.26699829101562 275.9939880371094,77.18199920654297 267.406005859375,95.53299713134766 C258.8179931640625,113.88400268554688 266.7330017089844,135.7220001220703 285.0840148925781,144.30999755859375 C303.43499755859375,152.8979949951172 325.27301025390625,144.98300170898438 333.8609924316406,126.63200378417969z"></path></g><g opacity="1" transform="matrix(1,0,0,1,0,0)"><path fill="rgb(158,72,42)" fill-opacity="1" d=" M321.2669982910156,80.50399780273438 C321.2669982910156,80.50399780273438 307.7170104980469,73.04100036621094 263.17498779296875,55.18600082397461 C232.36199951171875,42.83399963378906 202.46600341796875,30.82200050354004 202.46600341796875,30.82200050354004 C202.46600341796875,30.82200050354004 179.0500030517578,82.0510025024414 179.0500030517578,82.0510025024414 C179.0500030517578,82.0510025024414 212.16600036621094,104.75900268554688 232.6230010986328,117.42500305175781 C258.1080017089844,133.20399475097656 285.0840148925781,144.30999755859375 285.0840148925781,144.30999755859375 C285.0840148925781,144.30999755859375 321.2669982910156,80.50399780273438 321.2669982910156,80.50399780273438z"></path></g></g><g transform="matrix(0.9999999403953552,0,0,0.9999999403953552,820.0001831054688,800.0001831054688)" opacity="1" style="display: block;"><g opacity="1" transform="matrix(1,0,0,1,0,0)"><g opacity="1" transform="matrix(1,0,0,1,0,0)"><path fill="rgb(158,72,42)" fill-opacity="1" d=" M139.16900634765625,53.124000549316406 C138.89500427246094,49.595001220703125 141.53399658203125,46.51100158691406 145.06300354003906,46.23699951171875 C148.5919952392578,45.9630012512207 151.67599487304688,48.60200119018555 151.9499969482422,52.13100051879883 C152.2239990234375,55.65999984741211 149.5850067138672,58.74399948120117 146.05599975585938,59.018001556396484 C142.52699279785156,59.29199981689453 139.4429931640625,56.65299987792969 139.16900634765625,53.124000549316406z"></path></g><g opacity="1" transform="matrix(1,0,0,1,0,0)"><path fill="rgb(158,72,42)" fill-opacity="1" d=" M129.31100463867188,53.46900177001953 C129.69000244140625,58.33000183105469 138.13800048828125,58.17399978637695 144.83900451660156,58.99599838256836 C144.83900451660156,58.99599838256836 143.86300659179688,46.44499969482422 143.86300659179688,46.44499969482422 C139.2469940185547,47.319000244140625 128.97500610351562,49.15800094604492 129.31100463867188,53.46900177001953z"></path></g></g><g opacity="1" transform="matrix(1,0,0,1,0,0)"><g opacity="1" transform="matrix(1,0,0,1,0,0)"><path fill="rgb(158,72,42)" fill-opacity="1" d=" M215.9250030517578,72.24299621582031 C224.2949981689453,59.132999420166016 220.4530029296875,41.71900177001953 207.34300231933594,33.3489990234375 C194.23300170898438,24.979000091552734 176.8179931640625,28.820999145507812 168.447998046875,41.930999755859375 C160.0780029296875,55.04100036621094 163.92100524902344,72.45500183105469 177.031005859375,80.82499694824219 C190.14100646972656,89.19499969482422 207.55499267578125,85.35299682617188 215.9250030517578,72.24299621582031z"></path></g><g opacity="1" transform="matrix(1,0,0,1,0,0)"><path fill="rgb(158,72,42)" fill-opacity="1" d=" M178.26499938964844,81.56999969482422 C178.26499938964844,81.56999969482422 206.71600341796875,32.9379997253418 206.71600341796875,32.9379997253418 C206.71600341796875,32.9379997253418 196.5749969482422,27.09000015258789 178.82400512695312,19.215999603271484 C177.54200744628906,18.64699935913086 170.80299377441406,26.4060001373291 164.41900634765625,38.34700012207031 C159.3820037841797,47.768001556396484 154.19700622558594,58.85599899291992 154.19700622558594,58.85599899291992 C154.19700622558594,58.85599899291992 152.0070037841797,66.56700134277344 152.0070037841797,66.56700134277344 C152.0070037841797,66.56700134277344 156.96299743652344,70.39299774169922 166.3820037841797,75.68599700927734 C169.25399780273438,77.30000305175781 178.26499938964844,81.56999969482422 178.26499938964844,81.56999969482422z"></path></g></g><g opacity="1" transform="matrix(1,0,0,1,0,0)"><g opacity="1" transform="matrix(1,0,0,1,0,0)"><path fill="rgb(158,72,42)" fill-opacity="1" d=" M153.62399291992188,14.83899974822998 C154.906005859375,11.538999557495117 158.6199951171875,9.904000282287598 161.9199981689453,11.185999870300293 C165.22000122070312,12.468000411987305 166.85499572753906,16.180999755859375 165.572998046875,19.481000900268555 C164.29100036621094,22.7810001373291 160.57699584960938,24.416000366210938 157.27699279785156,23.134000778198242 C153.9770050048828,21.851999282836914 152.3419952392578,18.138999938964844 153.62399291992188,14.83899974822998z"></path></g><g opacity="1" transform="matrix(1,0,0,1,0,0)"><path fill="rgb(158,72,42)" fill-opacity="1" d=" M137.80499267578125,3.4210000038146973 C135.79299926757812,7.883999824523926 146.5590057373047,17.22100067138672 156.5030059814453,22.77199935913086 C156.5030059814453,22.77199935913086 161.9199981689453,11.185999870300293 161.9199981689453,11.185999870300293 C146.99400329589844,2.9070000648498535 139.34300231933594,0.009999999776482582 137.80499267578125,3.4210000038146973z"></path></g></g><g opacity="1" transform="matrix(1,0,0,1,0,0)"><g opacity="1" transform="matrix(1,0,0,1,0,0)"><path fill="rgb(158,72,42)" fill-opacity="1" d=" M147.47000122070312,31.045000076293945 C146.06900024414062,27.79400062561035 147.56900024414062,24.023000717163086 150.82000732421875,22.621999740600586 C154.0709991455078,21.22100067138672 157.84100341796875,22.72100067138672 159.24200439453125,25.972000122070312 C160.64300537109375,29.222999572753906 159.1439971923828,32.99300003051758 155.89300537109375,34.39400100708008 C152.64199829101562,35.79499816894531 148.87100219726562,34.29600143432617 147.47000122070312,31.045000076293945z"></path></g><g opacity="1" transform="matrix(1,0,0,1,0,0)"><path fill="rgb(158,72,42)" fill-opacity="1" d=" M130.14199829101562,35.553001403808594 C131.83799743652344,40.14500045776367 144.1060028076172,37.698001861572266 155.08700561523438,34.67900085449219 C155.08700561523438,34.67900085449219 150.82000732421875,22.621999740600586 150.82000732421875,22.621999740600586 C137.55299377441406,26.809999465942383 128.84500122070312,32.042999267578125 130.14199829101562,35.553001403808594z"></path></g></g><g opacity="1" transform="matrix(1,0,0,1,0,0)"><g opacity="1" transform="matrix(1,0,0,1,0,0)"><path fill="rgb(158,72,42)" fill-opacity="1" d=" M172.8470001220703,18.51300048828125 C177.21499633789062,17.351999282836914 181.69700622558594,19.952999114990234 182.85800170898438,24.320999145507812 C184.0189971923828,28.68899917602539 181.41799926757812,33.17100143432617 177.0500030517578,34.332000732421875 C172.6820068359375,35.49300003051758 168.2010040283203,32.891998291015625 167.0399932861328,28.52400016784668 C165.87899780273438,24.1560001373291 168.47900390625,19.673999786376953 172.8470001220703,18.51300048828125z"></path></g><g opacity="1" transform="matrix(1,0,0,1,0,0)"><path fill="rgb(158,72,42)" fill-opacity="1" d=" M155.62600708007812,22.18899917602539 C160.8699951171875,26.819000244140625 170.2519989013672,33.124000549316406 170.2519989013672,33.124000549316406 C170.2519989013672,33.124000549316406 178.82400512695312,19.215999603271484 178.82400512695312,19.215999603271484 C178.82400512695312,19.215999603271484 174.39199829101562,16.993000030517578 168.8249969482422,14.369000434875488 C166.843994140625,13.4350004196167 164.718994140625,12.451000213623047 162.5989990234375,11.498000144958496 C162.5989990234375,11.498000144958496 155.62600708007812,22.18899917602539 155.62600708007812,22.18899917602539z"></path></g></g><g opacity="1" transform="matrix(1,0,0,1,0,0)"><g opacity="1" transform="matrix(1,0,0,1,0,0)"><path fill="rgb(158,72,42)" fill-opacity="1" d=" M142.16600036621094,41.637001037597656 C141.3520050048828,38.19200134277344 143.48399353027344,34.73899841308594 146.9290008544922,33.92499923706055 C150.37399291992188,33.111000061035156 153.82699584960938,35.24399948120117 154.64100646972656,38.68899917602539 C155.4550018310547,42.13399887084961 153.322998046875,45.58700180053711 149.8780059814453,46.4010009765625 C146.43299865722656,47.21500015258789 142.97999572753906,45.082000732421875 142.16600036621094,41.637001037597656z"></path></g><g opacity="1" transform="matrix(1,0,0,1,0,0)"><path fill="rgb(158,72,42)" fill-opacity="1" d=" M142.16600036621094,41.637001037597656 C141.3520050048828,38.19200134277344 143.48399353027344,34.73899841308594 146.9290008544922,33.92499923706055 C150.37399291992188,33.111000061035156 153.82699584960938,35.24399948120117 154.64100646972656,38.68899917602539"></path><path stroke-linecap="round" stroke-linejoin="round" fill-opacity="0" stroke="rgb(2,2,2)" stroke-opacity="1" stroke-width="1.667" d=" M142.16600036621094,41.637001037597656 C141.3520050048828,38.19200134277344 143.48399353027344,34.73899841308594 146.9290008544922,33.92499923706055 C150.37399291992188,33.111000061035156 153.82699584960938,35.24399948120117 154.64100646972656,38.68899917602539"></path></g><g opacity="1" transform="matrix(1,0,0,1,0,0)"><path fill="rgb(158,72,42)" fill-opacity="1" d=" M124.31800079345703,43.06399917602539 C125.19000244140625,47.88100051879883 137.6959991455078,47.60499954223633 149.03500366210938,46.54100036621094 C149.03500366210938,46.54100036621094 146.9290008544922,33.92499923706055 146.9290008544922,33.92499923706055 C144.4219970703125,34.255001068115234 142.0570068359375,34.645999908447266 139.8699951171875,35.08599853515625 C137.01300048828125,35.6609992980957 134.45799255371094,36.31999969482422 132.28500366210938,37.040000915527344 C126.96800231933594,38.80099868774414 123.93099975585938,40.92599868774414 124.31800079345703,43.06399917602539z"></path></g><g opacity="1" transform="matrix(1,0,0,1,0,0)"><path fill="rgb(158,72,42)" fill-opacity="1" d=" M146.9290008544922,33.92499923706055 C144.4219970703125,34.255001068115234 142.0570068359375,34.645999908447266 139.8699951171875,35.08599853515625 C137.01300048828125,35.6609992980957 134.45799255371094,36.31999969482422 132.28500366210938,37.040000915527344"></path><path stroke-linecap="round" stroke-linejoin="round" fill-opacity="0" stroke="rgb(2,2,2)" stroke-opacity="1" stroke-width="1.667" d=" M146.9290008544922,33.92499923706055 C144.4219970703125,34.255001068115234 142.0570068359375,34.645999908447266 139.8699951171875,35.08599853515625 C137.01300048828125,35.6609992980957 134.45799255371094,36.31999969482422 132.28500366210938,37.040000915527344"></path></g></g><g opacity="1" transform="matrix(1,0,0,1,0,0)"><g opacity="1" transform="matrix(1,0,0,1,0,0)"><path fill="rgb(158,72,42)" fill-opacity="1" d=" M166.57200622558594,30.158000946044922 C170.96499633789062,29.09600067138672 175.38800048828125,31.795000076293945 176.4499969482422,36.1879997253418 C177.51199340820312,40.58100128173828 174.81199645996094,45.00400161743164 170.41900634765625,46.066001892089844 C166.0260009765625,47.12799835205078 161.60299682617188,44.42900085449219 160.54100036621094,40.0359992980957 C159.47900390625,35.643001556396484 162.1790008544922,31.219999313354492 166.57200622558594,30.158000946044922z"></path></g><g opacity="1" transform="matrix(1,0,0,1,0,0)"><path fill="rgb(158,72,42)" fill-opacity="1" d=" M151.73300170898438,34.6879997253418 C156.8719940185547,39.435001373291016 163.6490020751953,44.707000732421875 163.6490020751953,44.707000732421875 C163.6490020751953,44.707000732421875 172.531005859375,30.9950008392334 172.531005859375,30.9950008392334 C172.531005859375,30.9950008392334 168.37100219726562,28.790000915527344 163.06199645996094,26.134000778198242 C160.98500061035156,25.094999313354492 158.7310028076172,23.986000061035156 156.48300170898438,22.913999557495117 C156.48300170898438,22.913999557495117 151.73300170898438,34.6879997253418 151.73300170898438,34.6879997253418z"></path></g><g opacity="1" transform="matrix(1,0,0,1,0,0)"><path fill="rgb(158,72,42)" fill-opacity="1" d=" M169.36500549316406,29.341999053955078 C167.70199584960938,28.48200035095215 165.50399780273438,27.354999542236328 163.06199645996094,26.134000778198242 C160.98500061035156,25.094999313354492 158.7310028076172,23.986000061035156 156.48300170898438,22.913999557495117"></path><path stroke-linecap="round" stroke-linejoin="round" fill-opacity="0" stroke="rgb(2,2,2)" stroke-opacity="1" stroke-width="1.667" d=" M169.36500549316406,29.341999053955078 C167.70199584960938,28.48200035095215 165.50399780273438,27.354999542236328 163.06199645996094,26.134000778198242 C160.98500061035156,25.094999313354492 158.7310028076172,23.986000061035156 156.48300170898438,22.913999557495117"></path></g></g><g opacity="1" transform="matrix(1,0,0,1,0,0)"><g opacity="1" transform="matrix(1,0,0,1,0,0)"><path fill="rgb(158,72,42)" fill-opacity="1" d=" M161.5500030517578,42.29600143432617 C165.97900390625,41.39500045776367 170.2989959716797,44.255001068115234 171.1999969482422,48.683998107910156 C172.1009979248047,53.112998962402344 169.24000549316406,57.433998107910156 164.81100463867188,58.334999084472656 C160.3820037841797,59.236000061035156 156.06199645996094,56.375 155.16099548339844,51.94599914550781 C154.25999450683594,47.516998291015625 157.12100219726562,43.196998596191406 161.5500030517578,42.29600143432617z"></path></g><g opacity="1" transform="matrix(1,0,0,1,0,0)"><path fill="rgb(158,72,42)" fill-opacity="1" d=" M144.14100646972656,44.948001861572266 C149.1020050048828,49.880001068115234 158.0959930419922,56.72800064086914 158.0959930419922,56.72800064086914 C158.0959930419922,56.72800064086914 167.47500610351562,43.349998474121094 167.47500610351562,43.349998474121094 C167.47500610351562,43.349998474121094 159.58200073242188,38.790000915527344 151.73300170898438,34.6879997253418 C151.73300170898438,34.6879997253418 144.14100646972656,44.948001861572266 144.14100646972656,44.948001861572266z"></path></g><g opacity="1" transform="matrix(1,0,0,1,0,0)"><path fill="rgb(158,72,42)" fill-opacity="1" d=" M163.16099548339844,40.483001708984375 C163.16099548339844,40.483001708984375 151.73300170898438,34.6879997253418 151.73300170898438,34.6879997253418"></path><path stroke-linecap="round" stroke-linejoin="round" fill-opacity="0" stroke="rgb(2,2,2)" stroke-opacity="1" stroke-width="1.667" d=" M163.16099548339844,40.483001708984375 C163.16099548339844,40.483001708984375 151.73300170898438,34.6879997253418 151.73300170898438,34.6879997253418"></path></g></g><g opacity="1" transform="matrix(1,0,0,1,0,0)"><g opacity="1" transform="matrix(1,0,0,1,0,0)"><path fill="rgb(158,72,42)" fill-opacity="1" d=" M141.2740020751953,57.39500045776367 C146.41799926757812,62.13600158691406 152.0070037841797,66.56700134277344 152.0070037841797,66.56700134277344 C152.0070037841797,66.56700134277344 160.87399291992188,52.845001220703125 160.87399291992188,52.845001220703125 C160.87399291992188,52.845001220703125 159.50599670410156,52.117000579833984 157.37399291992188,51.05500030517578 C155.00999450683594,49.87699890136719 151.7050018310547,48.28799819946289 148.2830047607422,46.82500076293945 C148.2830047607422,46.82500076293945 141.2740020751953,57.39500045776367 141.2740020751953,57.39500045776367z"></path></g><g opacity="1" transform="matrix(1,0,0,1,0,0)"><path fill="rgb(158,72,42)" fill-opacity="1" d=" M154.91299438476562,52.013999938964844 C159.30499267578125,50.946998596191406 163.7310028076172,53.641998291015625 164.79800415039062,58.034000396728516 C165.86500549316406,62.42599868774414 163.1699981689453,66.85199737548828 158.7779998779297,67.91899871826172 C154.38600158691406,68.98600006103516 149.9600067138672,66.29100036621094 148.89300537109375,61.89899826049805 C147.8260040283203,57.50699996948242 150.52099609375,53.08100128173828 154.91299438476562,52.013999938964844z"></path></g><g opacity="1" transform="matrix(1,0,0,1,0,0)"><path fill="rgb(158,72,42)" fill-opacity="1" d=" M160.87399291992188,52.845001220703125 C160.87399291992188,52.845001220703125 159.50599670410156,52.117000579833984 157.37399291992188,51.05500030517578 C155.00999450683594,49.87699890136719 151.7050018310547,48.28799819946289 148.2830047607422,46.82500076293945"></path><path stroke-linecap="round" stroke-linejoin="round" fill-opacity="0" stroke="rgb(2,2,2)" stroke-opacity="1" stroke-width="1.667" d=" M160.87399291992188,52.845001220703125 C160.87399291992188,52.845001220703125 159.50599670410156,52.117000579833984 157.37399291992188,51.05500030517578 C155.00999450683594,49.87699890136719 151.7050018310547,48.28799819946289 148.2830047607422,46.82500076293945"></path></g></g></g><g transform="matrix(1,0,0,1,800,800)" opacity="1" style="display: block;"><g opacity="1" transform="matrix(1,0,0,1,0,0)"></g><g opacity="1" transform="matrix(1,0,0,1,0,0)"><path fill="rgb(227,116,86)" fill-opacity="1" d=" M179.00900268554688,230.07200622558594 C240.94000244140625,230.07200622558594 275.94000244140625,187.0030059814453 275.94000244140625,187.0030059814453 C275.94000244140625,187.0030059814453 273.49200439453125,175.31399536132812 269.7550048828125,164.64700317382812 C261.25,140.36900329589844 254.73300170898438,119.9469985961914 254.73300170898438,119.9469985961914 C254.73300170898438,119.9469985961914 238.63999938964844,124.15699768066406 181.61199951171875,124.66300201416016 C126.16300201416016,125.15499877929688 105.35800170898438,119.9469985961914 105.35800170898438,119.9469985961914 C105.35800170898438,119.9469985961914 95.60600280761719,149.19900512695312 88.7979965209961,173.61000061035156 C88.34300231933594,175.24200439453125 85.56099700927734,186.6009979248047 85.56099700927734,186.6009979248047 C85.56099700927734,186.6009979248047 126.31900024414062,230.07200622558594 179.00900268554688,230.07200622558594z"></path></g><g opacity="1" transform="matrix(1,0,0,1,0,0)"><path stroke-linecap="round" stroke-linejoin="round" fill-opacity="0" stroke="rgb(2,2,2)" stroke-opacity="1" stroke-width="1.667" d=" M233.5749969482422,124.6780014038086 C233.5749969482422,124.6780014038086 235.80099487304688,142.01600646972656 246.51300048828125,155.3509979248047 C255.92799377441406,167.0709991455078 269.7550048828125,164.64700317382812 269.7550048828125,164.64700317382812"></path></g></g><g transform="matrix(0.9945219159126282,0.10452845692634583,-0.10452845692634583,0.9945219159126282,791.0404052734375,781.5711059570312)" opacity="1" style="display: block;"><g opacity="1" transform="matrix(1,0,0,1,0,0)"><path fill="rgb(158,72,42)" fill-opacity="1" d=" M24.148000717163086,110.79299926757812 C22.634000778198242,90.58899688720703 37.7859992980957,72.98300170898438 57.9900016784668,71.46900177001953 C78.19400024414062,69.95500183105469 95.80000305175781,85.10700225830078 97.31400299072266,105.31099700927734 C98.8280029296875,125.51499938964844 83.6760025024414,143.12100219726562 63.47200012207031,144.63499450683594 C43.268001556396484,146.1490020751953 25.66200065612793,130.9969940185547 24.148000717163086,110.79299926757812z"></path></g><g opacity="1" transform="matrix(1,0,0,1,0,0)"><path fill="rgb(158,72,42)" fill-opacity="1" d=" M61.53200149536133,71.36900329589844 C61.53200149536133,71.36900329589844 73.4530029296875,71.60600280761719 118.13899993896484,70.59100341796875 C153.88999938964844,69.77899932861328 180.61599731445312,67.83300018310547 180.61599731445312,67.83300018310547 C180.61599731445312,67.83300018310547 183.71200561523438,124.16999816894531 183.71200561523438,124.16999816894531 C183.71200561523438,124.16999816894531 154.79800415039062,131.28900146484375 121.27300262451172,137.67599487304688 C88.54299926757812,143.91200256347656 62.36800003051758,144.73500061035156 62.36800003051758,144.73500061035156 C62.36800003051758,144.73500061035156 61.53200149536133,71.36900329589844 61.53200149536133,71.36900329589844z"></path></g></g><g transform="matrix(1,-0.0000698326839483343,0.0000698326839483343,1,780.000244140625,800.0086059570312)" opacity="1" style="display: block;"><g opacity="1" transform="matrix(1,0,0,1,0,0)"><g opacity="1" transform="matrix(1,0,0,1,0,0)"><path fill="rgb(158,72,42)" fill-opacity="1" d=" M231.90899658203125,112.33899688720703 C233.49200439453125,109.1729965209961 232.20799255371094,105.322998046875 229.04200744628906,103.73999786376953 C225.87600708007812,102.15699768066406 222.0260009765625,103.44200134277344 220.4429931640625,106.60800170898438 C218.86000061035156,109.77400207519531 220.14500427246094,113.62300109863281 223.31100463867188,115.20600128173828 C226.4770050048828,116.78900146484375 230.3260040283203,115.50499725341797 231.90899658203125,112.33899688720703z"></path></g><g opacity="1" transform="matrix(1,0,0,1,0,0)"><path fill="rgb(158,72,42)" fill-opacity="1" d=" M240.91299438476562,116.36900329589844 C238.73199462890625,120.7300033569336 230.96400451660156,117.40499877929688 224.44700622558594,115.64399719238281 C224.44700622558594,115.64399719238281 230.0749969482422,104.38400268554688 230.0749969482422,104.38400268554688 C234.02200317382812,106.93099975585938 242.8470001220703,112.5009994506836 240.91299438476562,116.36900329589844z"></path></g></g><g opacity="1" transform="matrix(1,0,0,1,0,0)"><g opacity="1" transform="matrix(1,0,0,1,0,0)"><path fill="rgb(158,72,42)" fill-opacity="1" d=" M153.60299682617188,101.15799713134766 C150.7830047607422,85.86100006103516 160.8979949951172,71.17500305175781 176.19500732421875,68.3550033569336 C191.49200439453125,65.53500366210938 206.177001953125,75.6500015258789 208.9969940185547,90.9469985961914 C211.81700134277344,106.24400329589844 201.7030029296875,120.93000030517578 186.406005859375,123.75 C171.10899353027344,126.56999969482422 156.42300415039062,116.45500183105469 153.60299682617188,101.15799713134766z"></path></g><g opacity="1" transform="matrix(1,0,0,1,0,0)"><path fill="rgb(158,72,42)" fill-opacity="1" d=" M184.9810028076172,123.9749984741211 C184.9810028076172,123.9749984741211 176.92999267578125,68.20999908447266 176.92999267578125,68.20999908447266 C176.92999267578125,68.20999908447266 188.52699279785156,66.61100006103516 207.93600463867188,65.99800109863281 C209.33799743652344,65.9540023803711 212.66099548339844,75.6780014038086 214.0800018310547,89.14399719238281 C215.1999969482422,99.76799774169922 215.8300018310547,111.99199676513672 215.8300018310547,111.99199676513672 C215.8300018310547,111.99199676513672 214.95599365234375,119.95999908447266 214.95599365234375,119.95999908447266 C214.95599365234375,119.95999908447266 208.9239959716797,121.63999938964844 198.2050018310547,122.99800109863281 C194.93699645996094,123.41200256347656 184.9810028076172,123.9749984741211 184.9810028076172,123.9749984741211z"></path></g></g><g opacity="1" transform="matrix(1,0,0,1,0,0)"><g opacity="1" transform="matrix(1,0,0,1,0,0)"><path fill="rgb(158,72,42)" fill-opacity="1" d=" M232.92999267578125,71.4280014038086 C232.98399353027344,67.88899993896484 230.15899658203125,64.9749984741211 226.6199951171875,64.9209976196289 C223.08099365234375,64.86699676513672 220.16700744628906,67.69200134277344 220.11300659179688,71.23100280761719 C220.0590057373047,74.7699966430664 222.88400268554688,77.68399810791016 226.42300415039062,77.73799896240234 C229.96200561523438,77.79199981689453 232.87600708007812,74.96700286865234 232.92999267578125,71.4280014038086z"></path></g><g opacity="1" transform="matrix(1,0,0,1,0,0)"><path fill="rgb(158,72,42)" fill-opacity="1" d=" M251.88299560546875,66.80500030517578 C252.06700134277344,71.6969985961914 238.5780029296875,76.29499816894531 227.2760009765625,77.69400024414062 C227.2760009765625,77.69400024414062 226.6199951171875,64.9209976196289 226.6199951171875,64.9209976196289 C243.56399536132812,62.86899948120117 251.74200439453125,63.066001892089844 251.88299560546875,66.80500030517578z"></path></g></g><g opacity="1" transform="matrix(1,0,0,1,0,0)"><g opacity="1" transform="matrix(1,0,0,1,0,0)"><path fill="rgb(158,72,42)" fill-opacity="1" d=" M232.531005859375,88.75900268554688 C235.05299377441406,86.2750015258789 235.08200073242188,82.21700286865234 232.59800720214844,79.69499969482422 C230.11399841308594,77.1729965209961 226.05599975585938,77.14299774169922 223.53399658203125,79.62699890136719 C221.01199340820312,82.11100006103516 220.98300170898438,86.16899871826172 223.4669952392578,88.69100189208984 C225.9510040283203,91.21299743652344 230.00900268554688,91.24299621582031 232.531005859375,88.75900268554688z"></path></g><g opacity="1" transform="matrix(1,0,0,1,0,0)"><path fill="rgb(158,72,42)" fill-opacity="1" d=" M246.88699340820312,99.45899963378906 C243.58700561523438,103.07499694824219 233.1439971923828,96.18900299072266 224.10699462890625,89.25800323486328 C224.10699462890625,89.25800323486328 232.59800720214844,79.69499969482422 232.59800720214844,79.69499969482422 C243.31300354003906,88.56900024414062 249.40899658203125,96.69499969482422 246.88699340820312,99.45899963378906z"></path></g></g><g opacity="1" transform="matrix(1,0,0,1,0,0)"><g opacity="1" transform="matrix(1,0,0,1,0,0)"><path fill="rgb(158,72,42)" fill-opacity="1" d=" M213.73800659179688,67.59600067138672 C210.1280059814453,64.87699890136719 204.99600219726562,65.5979995727539 202.27699279785156,69.20800018310547 C199.5570068359375,72.81800079345703 200.2790069580078,77.94999694824219 203.88900756835938,80.66899871826172 C207.49899291992188,83.38800048828125 212.6300048828125,82.66699981689453 215.35000610351562,79.05699920654297 C218.06900024414062,75.4469985961914 217.34800720214844,70.31500244140625 213.73800659179688,67.59600067138672z"></path></g><g opacity="1" transform="matrix(1,0,0,1,0,0)"><path fill="rgb(158,72,42)" fill-opacity="1" d=" M228.3090057373047,77.48400115966797 C221.70799255371094,79.80000305175781 210.64199829101562,82.10900115966797 210.64199829101562,82.10900115966797 C210.64199829101562,82.10900115966797 207.93600463867188,65.99800109863281 207.93600463867188,65.99800109863281 C207.93600463867188,65.99800109863281 212.8780059814453,65.60600280761719 219.0240020751953,65.27100372314453 C221.21099853515625,65.1520004272461 223.5500030517578,65.03900146484375 225.8730010986328,64.9540023803711 C225.8730010986328,64.9540023803711 228.3090057373047,77.48400115966797 228.3090057373047,77.48400115966797z"></path></g></g><g opacity="1" transform="matrix(1,0,0,1,0,0)"><g opacity="1" transform="matrix(1,0,0,1,0,0)"><path fill="rgb(158,72,42)" fill-opacity="1" d=" M233.45700073242188,100.56900024414062 C235.50799560546875,97.68399810791016 234.83200073242188,93.68199920654297 231.94700622558594,91.63099670410156 C229.06199645996094,89.58000183105469 225.06100463867188,90.25599670410156 223.00999450683594,93.14099884033203 C220.95899963378906,96.0260009765625 221.63400268554688,100.0270004272461 224.5189971923828,102.0780029296875 C227.4040069580078,104.12899780273438 231.406005859375,103.4540023803711 233.45700073242188,100.56900024414062z"></path></g><g opacity="1" transform="matrix(1,0,0,1,0,0)"><path fill="rgb(158,72,42)" fill-opacity="1" d=" M233.45700073242188,100.56900024414062 C235.50799560546875,97.68399810791016 234.83200073242188,93.68199920654297 231.94700622558594,91.63099670410156 C229.06199645996094,89.58000183105469 225.06100463867188,90.25599670410156 223.00999450683594,93.14099884033203"></path><path stroke-linecap="round" stroke-linejoin="round" fill-opacity="0" stroke="rgb(2,2,2)" stroke-opacity="1" stroke-width="1.667" d=" M233.45700073242188,100.56900024414062 C235.50799560546875,97.68399810791016 234.83200073242188,93.68199920654297 231.94700622558594,91.63099670410156 C229.06199645996094,89.58000183105469 225.06100463867188,90.25599670410156 223.00999450683594,93.14099884033203"></path></g><g opacity="1" transform="matrix(1,0,0,1,0,0)"><path fill="rgb(158,72,42)" fill-opacity="1" d=" M249.4550018310547,108.60900115966797 C246.83399963378906,112.74299621582031 235.3520050048828,107.77999877929688 225.2480010986328,102.5260009765625 C225.2480010986328,102.5260009765625 231.94700622558594,91.63099670410156 231.94700622558594,91.63099670410156 C234.14500427246094,92.88099670410156 236.19000244140625,94.13300323486328 238.05099487304688,95.36399841308594 C240.48199462890625,96.97200012207031 242.5989990234375,98.54499816894531 244.3419952392578,100.02999877929688 C248.60499572753906,103.66300201416016 250.61900329589844,106.77400207519531 249.4550018310547,108.60900115966797z"></path></g><g opacity="1" transform="matrix(1,0,0,1,0,0)"><path fill="rgb(158,72,42)" fill-opacity="1" d=" M231.94700622558594,91.63099670410156 C234.14500427246094,92.88099670410156 236.19000244140625,94.13300323486328 238.05099487304688,95.36399841308594 C240.48199462890625,96.97200012207031 242.5989990234375,98.54499816894531 244.3419952392578,100.02999877929688"></path><path stroke-linecap="round" stroke-linejoin="round" fill-opacity="0" stroke="rgb(2,2,2)" stroke-opacity="1" stroke-width="1.667" d=" M231.94700622558594,91.63099670410156 C234.14500427246094,92.88099670410156 236.19000244140625,94.13300323486328 238.05099487304688,95.36399841308594 C240.48199462890625,96.97200012207031 242.5989990234375,98.54499816894531 244.3419952392578,100.02999877929688"></path></g></g><g opacity="1" transform="matrix(1,0,0,1,0,0)"><g opacity="1" transform="matrix(1,0,0,1,0,0)"><path fill="rgb(158,72,42)" fill-opacity="1" d=" M215.16799926757812,80.74600219726562 C211.4980010986328,78.10800170898438 206.38499450683594,78.94499969482422 203.7469940185547,82.61499786376953 C201.10899353027344,86.28500366210938 201.94500732421875,91.39900207519531 205.61500549316406,94.03700256347656 C209.28500366210938,96.67500305175781 214.3990020751953,95.83799743652344 217.03700256347656,92.16799926757812 C219.6750030517578,88.49800109863281 218.83799743652344,83.38400268554688 215.16799926757812,80.74600219726562z"></path></g><g opacity="1" transform="matrix(1,0,0,1,0,0)"><path fill="rgb(158,72,42)" fill-opacity="1" d=" M227.2100067138672,90.52899932861328 C220.66200256347656,92.99199676513672 212.3990020751953,95.32499694824219 212.3990020751953,95.32499694824219 C212.3990020751953,95.32499694824219 209.33200073242188,79.27799987792969 209.33200073242188,79.27799987792969 C209.33200073242188,79.27799987792969 214.01699829101562,78.802001953125 219.93499755859375,78.33999633789062 C222.25100708007812,78.15899658203125 224.7550048828125,77.98100280761719 227.24200439453125,77.83399963378906 C227.24200439453125,77.83399963378906 227.2100067138672,90.52899932861328 227.2100067138672,90.52899932861328z"></path></g><g opacity="1" transform="matrix(1,0,0,1,0,0)"><path fill="rgb(158,72,42)" fill-opacity="1" d=" M212.88800048828125,78.93900299072266 C214.7519989013672,78.76799774169922 217.21299743652344,78.552001953125 219.93499755859375,78.33999633789062 C222.25100708007812,78.15899658203125 224.7550048828125,77.98100280761719 227.24200439453125,77.83399963378906"></path><path stroke-linecap="round" stroke-linejoin="round" fill-opacity="0" stroke="rgb(2,2,2)" stroke-opacity="1" stroke-width="1.667" d=" M212.88800048828125,78.93900299072266 C214.7519989013672,78.76799774169922 217.21299743652344,78.552001953125 219.93499755859375,78.33999633789062 C222.25100708007812,78.15899658203125 224.7550048828125,77.98100280761719 227.24200439453125,77.83399963378906"></path></g></g><g opacity="1" transform="matrix(1,0,0,1,0,0)"><g opacity="1" transform="matrix(1,0,0,1,0,0)"><path fill="rgb(158,72,42)" fill-opacity="1" d=" M215.2519989013672,93.88200378417969 C211.48800659179688,91.37999725341797 206.4080047607422,92.40399932861328 203.906005859375,96.16799926757812 C201.4040069580078,99.93199920654297 202.42799377441406,105.01100158691406 206.19200134277344,107.51300048828125 C209.95599365234375,110.01499938964844 215.03599548339844,108.99099731445312 217.53799438476562,105.22699737548828 C220.0399932861328,101.46299743652344 219.01600646972656,96.38400268554688 215.2519989013672,93.88200378417969z"></path></g><g opacity="1" transform="matrix(1,0,0,1,0,0)"><path fill="rgb(158,72,42)" fill-opacity="1" d=" M230.38099670410156,102.89299774169922 C223.92799377441406,105.59400177001953 213.01800537109375,108.5530014038086 213.01800537109375,108.5530014038086 C213.01800537109375,108.5530014038086 209.36599731445312,92.62899780273438 209.36599731445312,92.62899780273438 C209.36599731445312,92.62899780273438 218.3939971923828,91.375 227.2100067138672,90.52899932861328 C227.2100067138672,90.52899932861328 230.38099670410156,102.89299774169922 230.38099670410156,102.89299774169922z"></path></g><g opacity="1" transform="matrix(1,0,0,1,0,0)"><path fill="rgb(158,72,42)" fill-opacity="1" d=" M214.4409942626953,91.59600067138672 C214.4409942626953,91.59600067138672 227.2100067138672,90.52899932861328 227.2100067138672,90.52899932861328"></path><path stroke-linecap="round" stroke-linejoin="round" fill-opacity="0" stroke="rgb(2,2,2)" stroke-opacity="1" stroke-width="1.667" d=" M214.4409942626953,91.59600067138672 C214.4409942626953,91.59600067138672 227.2100067138672,90.52899932861328 227.2100067138672,90.52899932861328"></path></g></g><g opacity="1" transform="matrix(1,0,0,1,0,0)"><g opacity="1" transform="matrix(1,0,0,1,0,0)"><path fill="rgb(158,72,42)" fill-opacity="1" d=" M228.3520050048828,115.50299835205078 C221.802001953125,117.95899963378906 214.95599365234375,119.95999908447266 214.95599365234375,119.95999908447266 C214.95599365234375,119.95999908447266 211.90699768066406,103.90899658203125 211.90699768066406,103.90899658203125 C211.90699768066406,103.90899658203125 213.447998046875,103.75 215.822998046875,103.56900024414062 C218.45700073242188,103.36799621582031 222.11700439453125,103.13999938964844 225.83799743652344,103.0719985961914 C225.83799743652344,103.0719985961914 228.3520050048828,115.50299835205078 228.3520050048828,115.50299835205078z"></path></g><g opacity="1" transform="matrix(1,0,0,1,0,0)"><path fill="rgb(158,72,42)" fill-opacity="1" d=" M217.74200439453125,105.38400268554688 C214.0749969482422,102.74199676513672 208.9600067138672,103.572998046875 206.3179931640625,107.23999786376953 C203.67599487304688,110.90699768066406 204.5070037841797,116.02200317382812 208.1739959716797,118.66400146484375 C211.84100341796875,121.30599975585938 216.95599365234375,120.4739990234375 219.59800720214844,116.80699920654297 C222.24000549316406,113.13999938964844 221.40899658203125,108.0260009765625 217.74200439453125,105.38400268554688z"></path></g><g opacity="1" transform="matrix(1,0,0,1,0,0)"><path fill="rgb(158,72,42)" fill-opacity="1" d=" M211.90699768066406,103.90899658203125 C211.90699768066406,103.90899658203125 213.447998046875,103.75 215.822998046875,103.56900024414062 C218.45700073242188,103.36799621582031 222.11700439453125,103.13999938964844 225.83799743652344,103.0719985961914"></path><path stroke-linecap="round" stroke-linejoin="round" fill-opacity="0" stroke="rgb(2,2,2)" stroke-opacity="1" stroke-width="1.667" d=" M211.90699768066406,103.90899658203125 C211.90699768066406,103.90899658203125 213.447998046875,103.75 215.822998046875,103.56900024414062 C218.45700073242188,103.36799621582031 222.11700439453125,103.13999938964844 225.83799743652344,103.0719985961914"></path></g></g></g><g transform="matrix(1,0,0,1,800,800)" opacity="1" style="display: block;"><g opacity="1" transform="matrix(1,0,0,1,0,0)"><path fill="rgb(77,149,208)" fill-opacity="1" d=" M146.6230010986328,437.71099853515625 C146.6230010986328,437.71099853515625 251.02999877929688,433.93499755859375 251.02999877929688,433.93499755859375 C251.02999877929688,433.93499755859375 256.4100036621094,452.7860107421875 260.5610046386719,489.69500732421875 C261.6189880371094,499.09698486328125 246,498.22198486328125 246,498.22198486328125 C246,498.22198486328125 140.48699951171875,497.447998046875 140.48699951171875,497.447998046875 C130.9980010986328,497.37799072265625 123.83300018310547,487.33099365234375 128.29100036621094,478.9549865722656 C140.05299377441406,456.85699462890625 146.6230010986328,437.71099853515625 146.6230010986328,437.71099853515625z"></path></g><g opacity="1" transform="matrix(1,0,0,1,0,0)"><path fill="rgb(77,149,208)" fill-opacity="1" d=" M146.0330047607422,444.64801025390625 C145.7830047607422,473.9750061035156 169.35400390625,497.9530029296875 198.68099975585938,498.2030029296875 C228.00799560546875,498.4530029296875 251.98599243164062,474.8819885253906 252.23599243164062,445.55499267578125 C252.48599243164062,416.2279968261719 228.9149932861328,392.25 199.58799743652344,392 C170.26100158691406,391.75 146.2830047607422,415.3210144042969 146.0330047607422,444.64801025390625z"></path></g><g opacity="1" transform="matrix(1,0,0,1,0,0)"><path stroke-linecap="round" stroke-linejoin="round" fill-opacity="0" stroke="rgb(255,255,255)" stroke-opacity="1" stroke-width="1.667" d=" M150.79299926757812,482.4049987792969 C160.2570037841797,475.2650146484375 170.18800354003906,469.06298828125 181.83299255371094,466.822998046875 C207.64999389648438,461.8580017089844 227.46099853515625,469.5690002441406 240.77499389648438,478.05499267578125"></path></g></g><g transform="matrix(1,0,0,1,800,800)" opacity="1" style="display: block;"><g opacity="1" transform="matrix(1,0,0,1,0,0)"><path fill="rgb(2,2,2)" fill-opacity="1" d=" M241.77699279785156,372.90899658203125 C247.218994140625,386.07598876953125 219.88499450683594,400.4909973144531 181.8679962158203,416.2049865722656 C143.8509979248047,431.91900634765625 109.5459976196289,442.98199462890625 104.10399627685547,429.81500244140625 C98.66200256347656,416.64801025390625 125.06900024414062,393.2359924316406 163.08599853515625,377.5220031738281 C201.10299682617188,361.8080139160156 236.3350067138672,359.74200439453125 241.77699279785156,372.90899658203125z"></path></g><g opacity="1" transform="matrix(1,0,0,1,0,0)"><path fill="rgb(227,116,86)" fill-opacity="1" d=" M174.7899932861328,203.31700134277344 C188.05599975585938,235.41099548339844 172.79200744628906,272.1820068359375 140.697998046875,285.447998046875 C108.60399627685547,298.7139892578125 71.83300018310547,283.45001220703125 58.56700134277344,251.3560028076172 C45.30099868774414,219.26199340820312 60.56399917602539,182.49099731445312 92.65799713134766,169.22500610351562 C101.23999786376953,165.67799377441406 110.15599822998047,164.1699981689453 118.86799621582031,164.47900390625 C130.5189971923828,164.89199829101562 141.8040008544922,168.55299377441406 151.43499755859375,174.92799377441406 C161.53399658203125,181.61300659179688 169.81500244140625,191.28199768066406 174.7899932861328,203.31700134277344z"></path></g><g opacity="1" transform="matrix(1,0,0,1,0,0)"><path stroke-linecap="round" stroke-linejoin="round" fill-opacity="0" stroke="rgb(2,2,2)" stroke-opacity="1" stroke-width="1.667" d=" M92.65799713134766,169.22500610351562 C101.23999786376953,165.67799377441406 110.15599822998047,164.1699981689453 118.86799621582031,164.47900390625 C130.5189971923828,164.89199829101562 141.8040008544922,168.55299377441406 151.43499755859375,174.92799377441406"></path></g><g opacity="1" transform="matrix(1,0,0,1,0,0)"><g opacity="1" transform="matrix(1,0,0,1,0,0)"><g opacity="1" transform="matrix(1,0,0,1,0,0)"><path fill="rgb(158,72,42)" fill-opacity="1" d=" M243.19700622558594,411.4530029296875 C243.19700622558594,411.4530029296875 228.6479949951172,369.3819885253906 228.6479949951172,369.3819885253906 C228.6479949951172,369.3819885253906 212.38600158691406,322.3689880371094 212.38600158691406,322.3689880371094 C212.38600158691406,322.3689880371094 205.197998046875,301.614990234375 205.197998046875,301.614990234375 C205.197998046875,301.614990234375 106.99400329589844,344.32501220703125 106.99400329589844,344.32501220703125 C106.99400329589844,344.32501220703125 113.27400207519531,361.9989929199219 113.27400207519531,361.9989929199219 C113.27400207519531,361.9989929199219 117.4739990234375,373.7869873046875 117.4739990234375,373.7869873046875 C117.4739990234375,373.7869873046875 145.67799377441406,453.05999755859375 145.67799377441406,453.05999755859375 C145.67799377441406,453.05999755859375 243.19700622558594,411.4530029296875 243.19700622558594,411.4530029296875z"></path></g></g><g opacity="1" transform="matrix(1,0,0,1,0,0)"><g opacity="1" transform="matrix(1,0,0,1,0,0)"><path fill="rgb(77,149,208)" fill-opacity="1" d=" M137.88900756835938,431.1510009765625 C137.88900756835938,431.1510009765625 150.26800537109375,465.9440002441406 150.26800537109375,465.9440002441406 C150.26800537109375,465.9440002441406 249.0070037841797,426.9930114746094 249.0070037841797,426.9930114746094 C249.0070037841797,426.9930114746094 236.54100036621094,392.22900390625 236.54100036621094,392.22900390625 C236.54100036621094,392.22900390625 215.322998046875,408.54998779296875 185.60400390625,412.32501220703125 C144.96099853515625,417.4880065917969 137.88900756835938,431.1510009765625 137.88900756835938,431.1510009765625z"></path></g></g><g opacity="1" transform="matrix(1,0,0,1,0,0)"><path fill="rgb(2,2,2)" fill-opacity="1" d=" M212.38600158691406,322.3689880371094 C212.38600158691406,322.3689880371094 233.7570037841797,384.1510009765625 233.7570037841797,384.1510009765625 C217.8769989013672,383.3320007324219 189.04600524902344,388.30999755859375 176.02699279785156,391.5419921875 C156.6699981689453,396.34698486328125 147.42999267578125,399.0459899902344 128.6739959716797,405.2200012207031 C128.6739959716797,405.2200012207031 113.27400207519531,361.9989929199219 113.27400207519531,361.9989929199219 C125.0459976196289,353.9469909667969 139.28399658203125,346.10198974609375 155.13400268554688,339.28399658203125 C175.6739959716797,330.43499755859375 195.63099670410156,324.7340087890625 212.38600158691406,322.3689880371094z"></path></g><g opacity="1" transform="matrix(1,0,0,1,0,0)"><g opacity="1" transform="matrix(1,0,0,1,0,0)"><path stroke-linecap="round" stroke-linejoin="round" fill-opacity="0" stroke="rgb(2,2,2)" stroke-opacity="1" stroke-width="1.667" d=" M193.64500427246094,449.5190124511719 C193.64500427246094,449.5190124511719 206.55599975585938,444.010009765625 206.55599975585938,444.010009765625"></path></g><g opacity="1" transform="matrix(1,0,0,1,0,0)"><path stroke-linecap="round" stroke-linejoin="round" fill-opacity="0" stroke="rgb(2,2,2)" stroke-opacity="1" stroke-width="1.667" d=" M221.06900024414062,436.71600341796875 C221.98500061035156,438.8630065917969 220.98699951171875,441.34600830078125 218.83999633789062,442.2619934082031 C216.6929931640625,443.1780090332031 214.2100067138672,442.17999267578125 213.29400634765625,440.0329895019531 C212.3780059814453,437.885986328125 213.37600708007812,435.40301513671875 215.5229949951172,434.48699951171875 C217.6699981689453,433.5710144042969 220.1529998779297,434.5690002441406 221.06900024414062,436.71600341796875z"></path></g><g opacity="1" transform="matrix(1,0,0,1,0,0)"><path stroke-linecap="round" stroke-linejoin="round" fill-opacity="0" stroke="rgb(2,2,2)" stroke-opacity="1" stroke-width="1.667" d=" M186.56100463867188,451.69500732421875 C187.4770050048828,453.8420104980469 186.47900390625,456.32501220703125 184.33200073242188,457.2409973144531 C182.18499755859375,458.1570129394531 179.70199584960938,457.15899658203125 178.78599548339844,455.0119934082031 C177.8699951171875,452.864990234375 178.8679962158203,450.3819885253906 181.01499938964844,449.46600341796875 C183.16200256347656,448.54998779296875 185.64500427246094,449.5480041503906 186.56100463867188,451.69500732421875z"></path></g></g></g><g opacity="1" transform="matrix(1,0,0,1,0,0)"><path fill="rgb(227,116,86)" fill-opacity="1" d=" M174.7899932861328,203.3159942626953 C174.7899932861328,203.3159942626953 241.5749969482422,372.4639892578125 241.5749969482422,372.4639892578125 C238.85400390625,366.89599609375 195.97000122070312,374.8290100097656 158.38800048828125,390.3630065917969 C122.36599731445312,405.25201416015625 102.61499786376953,420.3710021972656 103.50800323486328,427.6679992675781 C103.50800323486328,427.6679992675781 103.25499725341797,427.77301025390625 103.25499725341797,427.77301025390625 C103.25499725341797,427.77301025390625 56.85100173950195,246.68899536132812 56.85100173950195,246.68899536132812 C56.85100173950195,246.68899536132812 174.7899932861328,203.3159942626953 174.7899932861328,203.3159942626953z"></path></g><g opacity="1" transform="matrix(1,0,0,1,0,0)"><path fill="rgb(2,2,2)" fill-opacity="1" d=" M164.03500366210938,258.37200927734375 C164.03500366210938,258.37200927734375 89.7229995727539,339.7539978027344 82.24199676513672,346.09600830078125 C82.24199676513672,346.09600830078125 56.85100173950195,246.68899536132812 56.85100173950195,246.68899536132812 C56.85100173950195,246.68899536132812 174.79100036621094,203.3159942626953 174.79100036621094,203.3159942626953 C174.79100036621094,203.3159942626953 202.36700439453125,273.1610107421875 202.36700439453125,273.1610107421875 C202.36700439453125,273.1610107421875 195.06399536132812,274.3070068359375 182.3800048828125,268.5790100097656 C173.8280029296875,264.7170104980469 164.03500366210938,258.37200927734375 164.03500366210938,258.37200927734375z"></path></g></g><g transform="matrix(1,0,0,1,800,800)" opacity="1" style="display: block;"><g opacity="1" transform="matrix(1,0,0,1,0,0)"><path fill="rgb(227,116,86)" fill-opacity="1" d=" M275.94000244140625,187.0030059814453 C275.94000244140625,187.0030059814453 291.43701171875,234.18800354003906 263.4830017089844,250.3719940185547 C226.89300537109375,271.5559997558594 161.1840057373047,241.86599731445312 161.1840057373047,241.86599731445312 C161.1840057373047,241.86599731445312 118.10399627685547,130.18800354003906 118.10399627685547,130.18800354003906 C118.10399627685547,130.18800354003906 148.3179931640625,127.98500061035156 183.4409942626953,134.46400451660156 C191.33399963378906,135.9199981689453 199.4739990234375,137.81500244140625 207.5760040283203,140.27099609375 C234.1739959716797,148.3350067138672 260.3489990234375,162.4550018310547 275.94000244140625,187.0030059814453z"></path></g></g><g transform="matrix(1,0,0,1,800,800)" opacity="1" style="display: block;"><g opacity="1" transform="matrix(1,0,0,1,0,0)"><path fill="rgb(2,2,2)" fill-opacity="1" d=" M20.945999145507812,404.9679870605469 C4.821000099182129,429.3380126953125 -28.006000518798828,436.02099609375 -52.375999450683594,419.89599609375 C-76.74600219726562,403.77099609375 -83.42900085449219,370.9440002441406 -67.30400085449219,346.5740051269531 C-51.17900085449219,322.2040100097656 -18.351999282836914,315.52099609375 6.01800012588501,331.64599609375 C30.38800048828125,347.77099609375 37.07099914550781,380.5979919433594 20.945999145507812,404.9679870605469z"></path></g><g opacity="1" transform="matrix(1,0,0,1,0,0)"><path fill="rgb(77,149,208)" fill-opacity="1" d=" M6.038000106811523,331.61700439453125 C-15.973999977111816,317.052001953125 -44.88100051879883,321.1000061035156 -62.15299987792969,339.97601318359375 C-62.30799865722656,340.1239929199219 -71.61199951171875,343.99200439453125 -76.802001953125,342.7239990234375 C-76.802001953125,342.7239990234375 -96.94400024414062,392.1830139160156 -96.94400024414062,392.1830139160156 C-71.14399719238281,410.4540100097656 -18.496000289916992,448.4339904785156 -12.583000183105469,445.6709899902344 C-5.052000045776367,442.1520080566406 10.89799976348877,420.15399169921875 20.965999603271484,404.9389953613281 C37.090999603271484,380.5690002441406 30.408000946044922,347.74200439453125 6.038000106811523,331.61700439453125z"></path></g><g opacity="1" transform="matrix(1,0,0,1,0,0)"><path stroke-linecap="round" stroke-linejoin="round" fill-opacity="0" stroke="rgb(2,2,2)" stroke-opacity="1" stroke-width="1.667" d=" M-36.59199905395508,412.8999938964844 C-36.59199905395508,412.8999938964844 -29.114999771118164,407.8179931640625 -14.937000274658203,409.0249938964844 C-3.7070000171661377,409.9809875488281 8.156999588012695,419.25201416015625 8.156999588012695,419.25201416015625"></path></g></g><g transform="matrix(1,0,0,1,800,800)" opacity="1" style="display: block;"><g opacity="1" transform="matrix(1,0,0,1,0,0)"><path fill="rgb(77,149,208)" fill-opacity="1" d=" M-78.41200256347656,342.4840087890625 C-90.64399719238281,340.2030029296875 -94.13200378417969,340.1130065917969 -108.9020004272461,336.68701171875 C-122.63999938964844,333.5 -131.22300720214844,335.6919860839844 -134.31900024414062,337.8819885253906 C-140.35800170898438,342.15399169921875 -142.427001953125,347.1809997558594 -136.94500732421875,357.25201416015625 C-132.3979949951172,365.6059875488281 -121.26300048828125,374.239990234375 -98.7300033569336,390.9150085449219 C-98.7300033569336,390.9150085449219 -78.41200256347656,342.4840087890625 -78.41200256347656,342.4840087890625z"></path></g><g opacity="1" transform="matrix(1,0,0,1,0,0)"><path fill="rgb(77,149,208)" fill-opacity="1" d=" M-58.8390007019043,384.67401123046875 C-67.16100311279297,397.25 -84.10199737548828,400.70001220703125 -96.6780014038086,392.37799072265625 C-109.25399780273438,384.0559997558594 -112.7040023803711,367.114990234375 -104.38200378417969,354.53900146484375 C-96.05999755859375,341.9630126953125 -79.11900329589844,338.51300048828125 -66.54299926757812,346.8349914550781 C-53.96699905395508,355.1570129394531 -50.516998291015625,372.0979919433594 -58.8390007019043,384.67401123046875z"></path></g><g opacity="1" transform="matrix(1,0,0,1,0,0)"><path stroke-linecap="round" stroke-linejoin="round" fill-opacity="0" stroke="rgb(255,255,255)" stroke-opacity="1" stroke-width="1.667" d=" M-120.91400146484375,337.21600341796875 C-120.91400146484375,337.21600341796875 -132.61500549316406,340.7720031738281 -122.197998046875,353.1600036621094 C-116.94499969482422,359.4070129394531 -98.98899841308594,370.72198486328125 -98.98899841308594,370.72198486328125"></path></g></g><g transform="matrix(1,0,0,1,800,800)" opacity="1" style="display: block;"><g opacity="1" transform="matrix(1,0,0,1,0,0)"><path fill="rgb(2,2,2)" fill-opacity="1" d=" M61.111000061035156,375.0119934082031 C52.617000579833984,386.45001220703125 26.197999954223633,370.4179992675781 -6.828000068664551,345.8909912109375 C-39.854000091552734,321.364013671875 -66.9800033569336,297.6310119628906 -58.486000061035156,286.1929931640625 C-49.992000579833984,274.7550048828125 -16.33300018310547,285.364990234375 16.69300079345703,309.8919982910156 C49.71900177001953,334.41900634765625 69.6050033569336,363.5740051269531 61.111000061035156,375.0119934082031z"></path></g><g opacity="1" transform="matrix(1,0,0,1,0,0)"><path fill="rgb(227,116,86)" fill-opacity="1" d=" M172.1219940185547,230.3560028076172 C169.53399658203125,233.84100341796875 166.6540069580078,236.9810028076172 163.54100036621094,239.76800537109375 C141.75,259.2760009765625 108.5459976196289,261.4639892578125 84.1510009765625,243.3470001220703 C56.270999908447266,222.64199829101562 50.45500183105469,183.25599670410156 71.16000366210938,155.37600708007812 C91.86499786376953,127.49600219726562 131.25100708007812,121.68000030517578 159.13099670410156,142.38499450683594 C173.54299926757812,153.08799743652344 182.0590057373047,168.781005859375 184.06399536132812,185.29800415039062 C185.93800354003906,200.73399353027344 182.12399291992188,216.88800048828125 172.1219940185547,230.3560028076172z"></path></g><g opacity="1" transform="matrix(1,0,0,1,0,0)"><g opacity="1" transform="matrix(1,0,0,1,0,0)"><g opacity="1" transform="matrix(1,0,0,1,0,0)"><path fill="rgb(158,72,42)" fill-opacity="1" d=" M28.781999588012695,396.0480041503906 C28.781999588012695,396.0480041503906 57.3849983215332,361.93798828125 57.3849983215332,361.93798828125 C57.3849983215332,361.93798828125 89.34500122070312,323.8169860839844 89.34500122070312,323.8169860839844 C89.34500122070312,323.8169860839844 103.44999694824219,306.9800109863281 103.44999694824219,306.9800109863281 C103.44999694824219,306.9800109863281 16.322999954223633,244.71400451660156 16.322999954223633,244.71400451660156 C16.322999954223633,244.71400451660156 4.39300012588501,259.18798828125 4.39300012588501,259.18798828125 C4.39300012588501,259.18798828125 -3.556999921798706,268.85101318359375 -3.556999921798706,268.85101318359375 C-3.556999921798706,268.85101318359375 -57.04600143432617,333.8030090332031 -57.04600143432617,333.8030090332031 C-57.04600143432617,333.8030090332031 28.781999588012695,396.0480041503906 28.781999588012695,396.0480041503906z"></path></g></g><g opacity="1" transform="matrix(1,0,0,1,0,0)"><g opacity="1" transform="matrix(1,0,0,1,0,0)"><path fill="rgb(77,149,208)" fill-opacity="1" d=" M-42.2599983215332,315.8559875488281 C-42.2599983215332,315.8559875488281 -65.73600006103516,344.364013671875 -65.73600006103516,344.364013671875 C-65.73600006103516,344.364013671875 19.375999450683594,407.2560119628906 19.375999450683594,407.2560119628906 C19.375999450683594,407.2560119628906 41.847999572753906,380.4549865722656 41.847999572753906,380.4549865722656 C41.847999572753906,380.4549865722656 16.93899917602539,370.64898681640625 -1.5800000429153442,347.10101318359375 C-26.9060001373291,314.8970031738281 -42.2599983215332,315.8559875488281 -42.2599983215332,315.8559875488281z"></path></g></g><g opacity="1" transform="matrix(1,0,0,1,0,0)"><path fill="rgb(2,2,2)" fill-opacity="1" d=" M89.34500122070312,323.8169860839844 C89.34500122070312,323.8169860839844 47.345001220703125,373.9129943847656 47.345001220703125,373.9129943847656 C39.88199996948242,359.87200927734375 20.78700065612793,337.7040100097656 11.321000099182129,328.20001220703125 C-2.753000020980835,314.0690002441406 -9.819000244140625,307.5320129394531 -24.757999420166016,294.6199951171875 C-24.757999420166016,294.6199951171875 4.39300012588501,259.18798828125 4.39300012588501,259.18798828125 C17.351999282836914,265.1449890136719 31.402000427246094,273.3219909667969 45.39899826049805,283.4100036621094 C63.54999923706055,296.47698974609375 78.70099639892578,310.6629943847656 89.34500122070312,323.8169860839844z"></path></g><g opacity="1" transform="matrix(1,0,0,1,0,0)"><g opacity="1" transform="matrix(1,0,0,1,0,0)"><path stroke-linecap="round" stroke-linejoin="round" fill-opacity="0" stroke="rgb(2,2,2)" stroke-opacity="1" stroke-width="1.667" d=" M-65.80999755859375,344.4289855957031 C-65.80999755859375,344.4289855957031 -57.61800003051758,350.3699951171875 -57.61800003051758,350.3699951171875"></path></g><g opacity="1" transform="matrix(1,0,0,1,0,0)"><g opacity="1" transform="matrix(1,0,0,1,0,0)"><path stroke-linecap="round" stroke-linejoin="round" fill-opacity="0" stroke="rgb(2,2,2)" stroke-opacity="1" stroke-width="1.667" d=" M-46.12900161743164,358.7019958496094 C-47.499000549316406,360.5920104980469 -50.141998291015625,361.0119934082031 -52.03200149536133,359.6419982910156 C-53.922000885009766,358.2720031738281 -54.34199905395508,355.6289978027344 -52.97200012207031,353.739013671875 C-51.60200119018555,351.8489990234375 -48.95899963378906,351.4289855957031 -47.069000244140625,352.79901123046875 C-45.17900085449219,354.16900634765625 -44.75899887084961,356.81201171875 -46.12900161743164,358.7019958496094z"></path></g></g></g></g><g opacity="1" transform="matrix(1,0,0,1,0,0)"><path fill="rgb(227,116,86)" fill-opacity="1" d=" M172.0959930419922,230.23699951171875 C172.0959930419922,230.23699951171875 61.51300048828125,374.60699462890625 61.51300048828125,374.60699462890625 C64.88400268554688,369.4070129394531 35.99599838256836,336.7349853515625 3.322999954223633,312.52398681640625 C-27.993999481201172,289.3179931640625 -51.125999450683594,280.1759948730469 -56.92100143432617,284.70001220703125 C-56.92100143432617,284.70001220703125 -57.14099884033203,284.5369873046875 -57.14099884033203,284.5369873046875 C-57.14099884033203,284.5369873046875 74.16899871826172,151.48800659179688 74.16899871826172,151.48800659179688 C74.16899871826172,151.48800659179688 172.0959930419922,230.23699951171875 172.0959930419922,230.23699951171875z"></path></g></g><g transform="matrix(1,0,0,1,800,800)" opacity="1" style="display: block;"><g opacity="1" transform="matrix(1,0,0,1,0,0)"><path stroke-linecap="round" stroke-linejoin="round" fill-opacity="0" stroke="rgb(2,2,2)" stroke-opacity="1" stroke-width="1.667" d=" M118.10399627685547,130.18800354003906 C118.10399627685547,130.18800354003906 148.3179931640625,127.98500061035156 183.4409942626953,134.46400451660156 C191.33399963378906,135.9199981689453 199.4739990234375,137.81500244140625 207.5760040283203,140.27099609375"></path></g></g><g transform="matrix(1,0,0,1,800,800)" opacity="1" style="display: block;"><g opacity="1" transform="matrix(1,0,0,1,0,0)"><path fill="rgb(2,2,2)" fill-opacity="1" d=" M257.3760070800781,-84.18000030517578 C257.4360046386719,-86.99500274658203 256.9939880371094,-92.87000274658203 252.6580047607422,-103.83000183105469 C248.63400268554688,-114.00199890136719 243.10400390625,-120.46299743652344 237.9739990234375,-133.86000061035156 C236.01300048828125,-138.98199462890625 238.6510009765625,-147.46600341796875 234.75,-159.98399353027344 C232.39999389648438,-167.5260009765625 230.35499572753906,-172.2429962158203 225.3489990234375,-178.1840057373047 C200.7550048828125,-207.36900329589844 165.7220001220703,-203.10499572753906 145.39100646972656,-191.13600158691406 C125.05999755859375,-179.16700744628906 121.125,-152.93299865722656 121.125,-137.68499755859375 C121.125,-122.43699645996094 102.04399871826172,-88.21600341796875 108.1719970703125,-76.11799621582031 C114.48400115966797,-63.65700149536133 129.0780029296875,-68.49400329589844 132.0290069580078,-76.85600280761719 C133.07899475097656,-79.83100128173828 133.83200073242188,-84.23400115966797 133.83200073242188,-84.23400115966797 C133.83200073242188,-84.23400115966797 131.0469970703125,-76.02999877929688 139.28399658203125,-69.31400299072266 C148.38400268554688,-61.89500045776367 162.32000732421875,-67.61000061035156 191.73800659179688,-64.66799926757812 C210.32000732421875,-62.810001373291016 224.63900756835938,-60.70800018310547 236.7169952392578,-74.01399993896484 C243.16600036621094,-81.11900329589844 241.4720001220703,-92.86900329589844 241.4720001220703,-92.86900329589844 C241.4720001220703,-92.86900329589844 242.68499755859375,-77.3949966430664 249.77999877929688,-75.54399871826172 C256.06500244140625,-73.90399932861328 257.2669982910156,-79.04299926757812 257.3760070800781,-84.18000030517578z"></path></g></g><g transform="matrix(1,0,0,1,800,800)" opacity="1" style="display: block;"><g opacity="1" transform="matrix(1,0,0,1,0,0)"><path fill="rgb(158,72,42)" fill-opacity="1" d=" M157.39300537109375,-44.768001556396484 C157.39300537109375,-31.121999740600586 168.4550018310547,-20.05900001525879 182.1009979248047,-20.05900001525879 C195.7469940185547,-20.05900001525879 206.80999755859375,-31.121999740600586 206.80999755859375,-44.768001556396484 C206.80999755859375,-58.41400146484375 195.7469940185547,-69.47599792480469 182.1009979248047,-69.47599792480469 C168.4550018310547,-69.47599792480469 157.39300537109375,-58.41400146484375 157.39300537109375,-44.768001556396484z"></path></g><g opacity="1" transform="matrix(1,0,0,1,0,0)"><path fill="rgb(2,2,2)" fill-opacity="1" d=" M157.447998046875,-73.56999969482422 C157.447998046875,-59.92399978637695 168.50999450683594,-48.861000061035156 182.156005859375,-48.861000061035156 C195.802001953125,-48.861000061035156 206.86500549316406,-59.92399978637695 206.86500549316406,-73.56999969482422 C206.86500549316406,-87.21600341796875 195.802001953125,-98.27799987792969 182.156005859375,-98.27799987792969 C168.50999450683594,-98.27799987792969 157.447998046875,-87.21600341796875 157.447998046875,-73.56999969482422z"></path></g><g opacity="1" transform="matrix(1,0,0,1,0,0)"><path fill="rgb(158,72,42)" fill-opacity="1" d=" M157.42300415039062,-44.768001556396484 C157.42300415039062,-44.768001556396484 206.8300018310547,-44.768001556396484 206.8300018310547,-44.768001556396484 C206.8300018310547,-44.768001556396484 206.8300018310547,-73.5770034790039 206.8300018310547,-73.5770034790039 C206.8300018310547,-73.5770034790039 157.42300415039062,-73.5770034790039 157.42300415039062,-73.5770034790039 C157.42300415039062,-73.5770034790039 157.42300415039062,-44.768001556396484 157.42300415039062,-44.768001556396484z"></path></g><g opacity="1" transform="matrix(1,0,0,1,0,0)"><path fill="rgb(2,2,2)" fill-opacity="1" d=" M195.74000549316406,-65.99500274658203 C188.72799682617188,-61.840999603271484 184.41400146484375,-60.018001556396484 176.63800048828125,-57.57899856567383 C170.3489990234375,-55.60599899291992 163.91600036621094,-54.8489990234375 157.42300415039062,-54.69599914550781 C157.42300415039062,-54.69599914550781 157.42300415039062,-73.5770034790039 157.42300415039062,-73.5770034790039 C157.42300415039062,-73.5770034790039 206.86500549316406,-73.56999969482422 206.86500549316406,-73.56999969482422 C204.6719970703125,-71.01100158691406 198.63400268554688,-67.70999908447266 195.74000549316406,-65.99500274658203z"></path></g></g><g transform="matrix(1,0,0,1,800,800)" opacity="1" style="display: block;"><g opacity="1" transform="matrix(1,0,0,1,0,0)"><g opacity="1" transform="matrix(1,0,0,1,0,0)"><path stroke-linecap="round" stroke-linejoin="round" fill-opacity="0" stroke="rgb(2,2,2)" stroke-opacity="1" stroke-width="1.667" d=" M128.17599487304688,-130.7169952392578 C128.17599487304688,-130.7169952392578 122.06999969482422,-124.76300048828125 113.8290023803711,-113.99299621582031 C100.46600341796875,-96.53099822998047 98.38899993896484,-81.72000122070312 98.38899993896484,-81.72000122070312"></path></g><g opacity="1" transform="matrix(1,0,0,1,0,0)"><path stroke-linecap="round" stroke-linejoin="round" fill-opacity="0" stroke="rgb(2,2,2)" stroke-opacity="1" stroke-width="1.667" d=" M261.6940002441406,-111.1240005493164 C256.5570068359375,-127.73899841308594 238.95799255371094,-137.2480010986328 238.95799255371094,-137.2480010986328 C238.95799255371094,-137.2480010986328 246.58799743652344,-156.71600341796875 231.14300537109375,-177.08999633789062 C210.59300231933594,-204.197998046875 179.4949951171875,-197.8040008544922 179.4949951171875,-197.8040008544922"></path></g></g><g opacity="1" transform="matrix(1,0,0,1,0,0)"><g opacity="1" transform="matrix(1,0,0,1,0,0)"><path fill="rgb(158,72,42)" fill-opacity="1" d=" M131.5330047607422,-127.06600189208984 C134.26300048828125,-90.19300079345703 158.18699645996094,-61.909000396728516 184.97000122070312,-63.891998291015625 C211.7519989013672,-65.875 231.25100708007812,-97.3740005493164 228.52099609375,-134.2469940185547 C225.79100036621094,-171.1199951171875 201.86700439453125,-199.4040069580078 175.08399963378906,-197.42100524902344 C148.302001953125,-195.43800354003906 128.80299377441406,-163.93899536132812 131.5330047607422,-127.06600189208984z"></path></g><g opacity="1" transform="matrix(1,0,0,1,0,0)"><path fill="rgb(2,2,2)" fill-opacity="1" d=" M228.8470001220703,-159.82000732421875 C228.8470001220703,-159.82000732421875 232.9250030517578,-158.66700744628906 217.04200744628906,-160.8040008544922 C174.7949981689453,-166.48800659179688 167.08900451660156,-189.66099548339844 167.08900451660156,-189.66099548339844 C166.29600524902344,-185.08799743652344 160.68699645996094,-172.072998046875 150.96600341796875,-164.08299255371094 C141.82000732421875,-156.56500244140625 128.5030059814453,-153.91700744628906 128.5030059814453,-153.91700744628906 C128.5030059814453,-153.91700744628906 133.86300659179688,-194.35899353027344 175.08399963378906,-197.42100524902344 C216.30499267578125,-200.48199462890625 228.8470001220703,-159.82000732421875 228.8470001220703,-159.82000732421875z"></path></g><g opacity="1" transform="matrix(1,0,0,1,0,0)"><g opacity="1" transform="matrix(1,0,0,1,0,0)"><path fill="rgb(2,2,2)" fill-opacity="1" d=" M128.77699279785156,-203.3979949951172 C132.43499755859375,-190.81399536132812 147.6739959716797,-184.0260009765625 160.60699462890625,-187.03700256347656 C173.5399932861328,-190.04800415039062 181.61399841308594,-202.8350067138672 178.64300537109375,-215.5989990234375 C175.6719970703125,-228.36300659179688 166.96200561523438,-231.90899658203125 154.11500549316406,-228.55099487304688 C142.80999755859375,-225.5959930419922 141.82699584960938,-219.8820037841797 141.82699584960938,-219.8820037841797 C141.82699584960938,-219.8820037841797 124.45700073242188,-218.25799560546875 128.77699279785156,-203.3979949951172z"></path></g><g opacity="1" transform="matrix(1,0,0,1,0,0)"><path stroke-linecap="round" stroke-linejoin="round" fill-opacity="0" stroke="rgb(2,2,2)" stroke-opacity="1" stroke-width="1.667" d=" M142.68600463867188,-217.697998046875 C142.68600463867188,-217.697998046875 142.19000244140625,-223.85000610351562 138.09500122070312,-228.35499572753906 C134.406005859375,-232.41299438476562 130.7989959716797,-232.98699951171875 130.7989959716797,-232.98699951171875"></path></g><g opacity="1" transform="matrix(1,0,0,1,0,0)"><path stroke-linecap="round" stroke-linejoin="round" fill-opacity="0" stroke="rgb(2,2,2)" stroke-opacity="1" stroke-width="1.667" d=" M178.36000061035156,-206.41700744628906 C178.95899963378906,-206.9770050048828 183.6580047607422,-224.02499389648438 171.9530029296875,-231.3070068359375 C164.48399353027344,-235.95399475097656 156.28900146484375,-235.6009979248047 151.1300048828125,-232.3520050048828 C143.15699768066406,-227.33099365234375 142.24600219726562,-219.46800231933594 142.24600219726562,-219.46800231933594 C142.24600219726562,-219.46800231933594 135.2259979248047,-226.8800048828125 127.5199966430664,-220.9770050048828"></path></g></g><g opacity="1" transform="matrix(1,0,0,1,0,0)"></g><g opacity="1" transform="matrix(1,0,0,1,0,0)"><g opacity="1" transform="matrix(1,0,0,1,0,0)"><g opacity="1" transform="matrix(1,0,0,1,0,0)"><path fill="rgb(158,72,42)" fill-opacity="1" d=" M214.03599548339844,-134.57000732421875 C214.03599548339844,-126.02799987792969 221.18099975585938,-119.10299682617188 229.9949951171875,-119.10299682617188 C238.8090057373047,-119.10299682617188 245.95399475097656,-126.02799987792969 245.95399475097656,-134.57000732421875 C245.95399475097656,-143.11199951171875 238.8090057373047,-150.03700256347656 229.9949951171875,-150.03700256347656 C221.18099975585938,-150.03700256347656 214.03599548339844,-143.11199951171875 214.03599548339844,-134.57000732421875z"></path></g><g opacity="1" transform="matrix(1,0,0,1,0,0)"><path fill="rgb(158,72,42)" fill-opacity="1" d=" M235.72300720214844,-137.68499755859375 C235.72300720214844,-137.68499755859375 233.53399658203125,-137.12100219726562 231.2449951171875,-135.41000366210938 C229.13400268554688,-133.83200073242188 227.51499938964844,-131.39300537109375 227.51499938964844,-131.39300537109375"></path><path stroke-linecap="round" stroke-linejoin="round" fill-opacity="0" stroke="rgb(2,2,2)" stroke-opacity="1" stroke-width="1.667" d=" M235.72300720214844,-137.68499755859375 C235.72300720214844,-137.68499755859375 233.53399658203125,-137.12100219726562 231.2449951171875,-135.41000366210938 C229.13400268554688,-133.83200073242188 227.51499938964844,-131.39300537109375 227.51499938964844,-131.39300537109375"></path></g></g><g opacity="1" transform="matrix(1,0,0,1,0,0)"><path fill="rgb(255,255,255)" fill-opacity="1" d=" M227.51499938964844,-117.01200103759766 C227.51499938964844,-113.76000213623047 230.15199279785156,-111.1240005493164 233.4040069580078,-111.1240005493164 C236.656005859375,-111.1240005493164 239.29200744628906,-113.76000213623047 239.29200744628906,-117.01200103759766 C239.29200744628906,-120.26399993896484 236.656005859375,-122.9010009765625 233.4040069580078,-122.9010009765625 C230.15199279785156,-122.9010009765625 227.51499938964844,-120.26399993896484 227.51499938964844,-117.01200103759766z"></path></g></g><g opacity="1" transform="matrix(1,0,0,1,0,0)"><g opacity="1" transform="matrix(1,0,0,1,0,0)"><g opacity="1" transform="matrix(1,0,0,1,0,0)"><path fill="rgb(158,72,42)" fill-opacity="1" d=" M146.26600646972656,-129.76100158691406 C146.26600646972656,-121.21900177001953 139.12100219726562,-114.29399871826172 130.3070068359375,-114.29399871826172 C121.49299621582031,-114.29399871826172 114.3479995727539,-121.21900177001953 114.3479995727539,-129.76100158691406 C114.3479995727539,-138.30299377441406 121.49299621582031,-145.22799682617188 130.3070068359375,-145.22799682617188 C139.12100219726562,-145.22799682617188 146.26600646972656,-138.30299377441406 146.26600646972656,-129.76100158691406z"></path></g><g opacity="1" transform="matrix(1,0,0,1,0,0)"><path fill="rgb(158,72,42)" fill-opacity="1" d=" M124.5790023803711,-132.87600708007812 C124.5790023803711,-132.87600708007812 126.76799774169922,-132.31199645996094 129.0570068359375,-130.6009979248047 C131.16799926757812,-129.0229949951172 132.78700256347656,-126.58399963378906 132.78700256347656,-126.58399963378906"></path><path stroke-linecap="round" stroke-linejoin="round" fill-opacity="0" stroke="rgb(2,2,2)" stroke-opacity="1" stroke-width="1.667" d=" M124.5790023803711,-132.87600708007812 C124.5790023803711,-132.87600708007812 126.76799774169922,-132.31199645996094 129.0570068359375,-130.6009979248047 C131.16799926757812,-129.0229949951172 132.78700256347656,-126.58399963378906 132.78700256347656,-126.58399963378906"></path></g></g><g opacity="1" transform="matrix(1,0,0,1,0,0)"><path fill="rgb(255,255,255)" fill-opacity="1" d=" M122.1989974975586,-115.26499938964844 C122.1989974975586,-112.01300048828125 124.83499908447266,-109.37699890136719 128.08700561523438,-109.37699890136719 C131.33900451660156,-109.37699890136719 133.9759979248047,-112.01300048828125 133.9759979248047,-115.26499938964844 C133.9759979248047,-118.51699829101562 131.33900451660156,-121.15399932861328 128.08700561523438,-121.15399932861328 C124.83499908447266,-121.15399932861328 122.1989974975586,-118.51699829101562 122.1989974975586,-115.26499938964844z"></path></g></g></g></g><g transform="matrix(1,0,0,1,800,810)" opacity="1" style="display: block;"><g opacity="1" transform="matrix(1,0,0,1,0,0)"><path fill="rgb(2,2,2)" fill-opacity="1" d=" M208.46200561523438,-156.81399536132812 C202.01300048828125,-161.9510040283203 196.2729949951172,-160.31199645996094 196.3280029296875,-157.25100708007812 C196.38299560546875,-154.19000244140625 200.63600158691406,-151.0189971923828 203.97999572753906,-149.16299438476562 C213.43499755859375,-143.91600036621094 214.91099548339844,-151.677001953125 208.46200561523438,-156.81399536132812z"></path></g><g opacity="1" transform="matrix(1,0,0,1,0,0)"><path fill="rgb(2,2,2)" fill-opacity="1" d=" M162.7480010986328,-156.04600524902344 C156.30599975585938,-151.46400451660156 155.79200744628906,-145.56399536132812 158.3820037841797,-144.71800231933594 C160.9720001220703,-143.8719940185547 165.0399932861328,-146.95700073242188 167.7010040283203,-149.57000732421875 C175.2259979248047,-156.95799255371094 169.19000244140625,-160.6280059814453 162.7480010986328,-156.04600524902344z"></path></g></g><g transform="matrix(0.8660253882408142,0.5,-0.5,0.8660253882408142,753.3368530273438,708.2052612304688)" opacity="1" style="display: block;"><g opacity="1" transform="matrix(1,0,0,1,0,0)"><path fill="rgb(2,2,2)" fill-opacity="1" d=" M168.25,-139.0749969482422 C167.64100646972656,-139.97500610351562 166.41700744628906,-140.21099853515625 165.51699829101562,-139.6020050048828 C164.61700439453125,-138.9929962158203 164.38099670410156,-137.7689971923828 164.99000549316406,-136.86900329589844 C165.5989990234375,-135.968994140625 166.822998046875,-135.73300170898438 167.72300720214844,-136.3419952392578 C168.6230010986328,-136.9510040283203 168.85899353027344,-138.1750030517578 168.25,-139.0749969482422z"></path></g></g><g transform="matrix(0.8660253882408142,0.5,-0.5,0.8660253882408142,757.712158203125,689.826416015625)" opacity="1" style="display: block;"><g opacity="1" transform="matrix(1,0,0,1,0,0)"><path fill="rgb(2,2,2)" fill-opacity="1" d=" M204.73300170898438,-140.10000610351562 C204.12399291992188,-141 202.89999389648438,-141.23599243164062 202,-140.6269989013672 C201.10000610351562,-140.01800537109375 200.86399841308594,-138.79400634765625 201.47300720214844,-137.8939971923828 C202.08200073242188,-136.99400329589844 203.30599975585938,-136.75799560546875 204.20599365234375,-137.36700439453125 C205.1060028076172,-137.9759979248047 205.3419952392578,-139.1999969482422 204.73300170898438,-140.10000610351562z"></path></g></g><g transform="matrix(1,0,0,1,800,810)" opacity="1" style="display: block;"><g opacity="1" transform="matrix(1,0,0,1,0,0)"><path stroke-linecap="round" stroke-linejoin="round" fill-opacity="0" stroke="rgb(2,2,2)" stroke-opacity="1" stroke-width="1.667" d=" M186.21800231933594,-138.9969940185547 C186.21800231933594,-138.9969940185547 187.85699462890625,-124.40399932861328 187.2010040283203,-122.27300262451172 C186.5449981689453,-120.14199829101562 184.906005859375,-119.81400299072266 184.906005859375,-119.81400299072266"></path></g><g opacity="1" transform="matrix(1,0,0,1,0,0)"><path stroke-linecap="round" stroke-linejoin="round" fill-opacity="0" stroke="rgb(2,2,2)" stroke-opacity="1" stroke-width="1.667" d=" M182.91099548339844,-113.22799682617188 C182.91099548339844,-113.22799682617188 178.94200134277344,-112.74199676513672 175.93699645996094,-116.197998046875 C173.56300354003906,-118.92900085449219 173.48300170898438,-124.0770034790039 173.48300170898438,-124.0770034790039"></path></g></g><g transform="matrix(1,0,0,1,0,0)" opacity="1" style="display: block;"><g opacity="1" transform="matrix(1,0,0,1,800,800)"><g opacity="1" transform="matrix(1,0,0,1,0,0)"><g opacity="1" transform="matrix(1,0,0,1,0,0)"><path fill="rgb(2,2,2)" fill-opacity="1" d=" M60.68600082397461,117.05899810791016 C60.68600082397461,117.05899810791016 304.9800109863281,117.05899810791016 304.9800109863281,117.05899810791016 C307.3030090332031,117.05899810791016 309.1860046386719,115.1760025024414 309.1860046386719,112.85299682617188 C309.1860046386719,112.85299682617188 309.1860046386719,112.85299682617188 309.1860046386719,112.85299682617188 C309.1860046386719,110.52999877929688 307.3030090332031,108.64800262451172 304.9800109863281,108.64800262451172 C304.9800109863281,108.64800262451172 60.68600082397461,108.64800262451172 60.68600082397461,108.64800262451172 C58.362998962402344,108.64800262451172 56.48099899291992,110.52999877929688 56.48099899291992,112.85299682617188 C56.48099899291992,112.85299682617188 56.48099899291992,112.85299682617188 56.48099899291992,112.85299682617188 C56.48099899291992,115.1760025024414 58.362998962402344,117.05899810791016 60.68600082397461,117.05899810791016z"></path></g><g opacity="1" transform="matrix(1,0,0,1,0,0)"><path fill="rgb(209,220,226)" fill-opacity="1" d=" M89.09100341796875,-20.05900001525879 C89.09100341796875,-20.05900001525879 276.57501220703125,-20.05900001525879 276.57501220703125,-20.05900001525879 C282.98699951171875,-20.05900001525879 288.1839904785156,-14.862000465393066 288.1839904785156,-8.449999809265137 C288.1839904785156,-8.449999809265137 288.1839904785156,117.05899810791016 288.1839904785156,117.05899810791016 C288.1839904785156,117.05899810791016 77.48200225830078,117.05899810791016 77.48200225830078,117.05899810791016 C77.48200225830078,117.05899810791016 77.48200225830078,-8.449999809265137 77.48200225830078,-8.449999809265137 C77.48200225830078,-14.862000465393066 82.67900085449219,-20.05900001525879 89.09100341796875,-20.05900001525879z"></path></g><g opacity="1" transform="matrix(1,0,0,1,0,0)"><path stroke-linecap="round" stroke-linejoin="round" fill-opacity="0" stroke="rgb(255,255,255)" stroke-opacity="1" stroke-width="1.667" d=" M192.34800720214844,42.284000396728516 C192.34800720214844,47.53900146484375 188.08799743652344,51.79800033569336 182.83299255371094,51.79800033569336 C177.5780029296875,51.79800033569336 173.31900024414062,47.53900146484375 173.31900024414062,42.284000396728516 C173.31900024414062,37.02899932861328 177.5780029296875,32.77000045776367 182.83299255371094,32.77000045776367 C188.08799743652344,32.77000045776367 192.34800720214844,37.02899932861328 192.34800720214844,42.284000396728516z"></path></g></g><g opacity="1" transform="matrix(1,0,0,1,0,0)"><g opacity="1" transform="matrix(1,0,0,1,0,0)"><path stroke-linecap="round" stroke-linejoin="round" fill-opacity="0" stroke="rgb(2,2,2)" stroke-opacity="1" stroke-width="1.667" d=" M-6.366000175476074,130.6840057373047 C-6.366000175476074,130.6840057373047 362.8559875488281,499.906005859375 362.8559875488281,499.906005859375"></path></g><g opacity="1" transform="matrix(1,0,0,1,0,0)"><path stroke-linecap="round" stroke-linejoin="round" fill-opacity="0" stroke="rgb(2,2,2)" stroke-opacity="1" stroke-width="1.667" d=" M362.8559875488281,130.6840057373047 C362.8559875488281,130.6840057373047 -6.366000175476074,499.906005859375 -6.366000175476074,499.906005859375"></path></g></g><g opacity="1" transform="matrix(1,0,0,1,0,0)"><path fill="rgb(209,220,226)" fill-opacity="1" d=" M449.864013671875,144.30999755859375 C449.864013671875,144.30999755859375 -93.3740005493164,144.30999755859375 -93.3740005493164,144.30999755859375 C-93.3740005493164,144.30999755859375 -93.3740005493164,117.05899810791016 -93.3740005493164,117.05899810791016 C-93.3740005493164,117.05899810791016 449.864013671875,117.05899810791016 449.864013671875,117.05899810791016 C449.864013671875,117.05899810791016 449.864013671875,144.30999755859375 449.864013671875,144.30999755859375z"></path></g><g opacity="1" transform="matrix(1,0,0,1,0,0)"><path fill="rgb(2,2,2)" fill-opacity="1" d=" M-68.68399810791016,499.906005859375 C-68.68399810791016,499.906005859375 406.343994140625,499.906005859375 406.343994140625,499.906005859375 C406.343994140625,499.906005859375 462.5669860839844,523.6599731445312 462.5669860839844,523.6599731445312 C462.5669860839844,523.6599731445312 -68.68399810791016,499.906005859375 -68.68399810791016,499.906005859375z"></path></g></g><g opacity="1" transform="matrix(1,0,0,1,800,800)"><g opacity="1" transform="matrix(1,0,0,1,0,0)"><path fill="rgb(2,2,2)" fill-opacity="1" d=" M288.1839904785156,117.05899810791016 C288.1839904785156,117.05899810791016 77.48200225830078,117.05899810791016 77.48200225830078,117.05899810791016 C77.48200225830078,117.05899810791016 288.1839904785156,100.02999877929688 288.1839904785156,100.02999877929688 C288.1839904785156,100.02999877929688 288.1839904785156,117.05899810791016 288.1839904785156,117.05899810791016z"></path></g></g></g></g></g></svg>